<svg width="38" height="38" viewBox="0 0 38 38" fill="none" xmlns="http://www.w3.org/2000/svg">
<path d="M21.882 16.1177C20.353 14.5894 18.2797 13.7308 16.1179 13.7308C13.9561 13.7308 11.8828 14.5894 10.3538 16.1177L4.5879 21.8818C3.05892 23.4107 2.19995 25.4845 2.19995 27.6468C2.19995 29.8091 3.05892 31.8828 4.5879 33.4118C6.11687 34.9408 8.19061 35.7997 10.3529 35.7997C12.5152 35.7997 14.5889 34.9408 16.1179 33.4118L18.9999 30.5297" stroke="white" stroke-width="3" stroke-linecap="round" stroke-linejoin="round"/>
<path d="M16.1179 21.882C17.6469 23.4103 19.7202 24.2688 21.882 24.2688C24.0438 24.2688 26.1171 23.4103 27.6461 21.882L33.412 16.1179C34.941 14.5889 35.8 12.5152 35.8 10.3529C35.8 8.19061 34.941 6.11687 33.412 4.5879C31.883 3.05892 29.8093 2.19995 27.647 2.19995C25.4847 2.19995 23.411 3.05892 21.882 4.5879L19 7.46993" stroke="white" stroke-width="3" stroke-linecap="round" stroke-linejoin="round"/>
</svg>
