<svg width="40" height="41" viewBox="0 0 40 41" fill="none" xmlns="http://www.w3.org/2000/svg">
<path d="M23.5424 7C20.7469 7 18.6663 9.32152 18.6663 11.9722V16.5622C14.9878 16.7594 11.6535 17.7522 8.95531 19.3243C7.923 18.3098 6.54791 17.88 5.2035 17.88C3.74973 17.88 2.27061 18.3628 1.24497 19.5378V19.58L1.20229 19.6222C0.217987 20.8761 -0.183469 22.5502 0.077944 24.2122C0.213317 25.0409 0.516655 25.8318 0.968596 26.5343C1.42054 27.2368 2.01115 27.8355 2.70274 28.2922C2.69207 28.4472 2.6614 28.6009 2.6614 28.76C2.6614 32.3028 4.7607 35.4063 7.91366 37.5578C11.064 39.708 15.3159 41 20 41C24.6841 41 28.936 39.708 32.0877 37.5578C35.238 35.4063 37.3386 32.3028 37.3386 28.76C37.3386 28.6009 37.3079 28.4472 37.2973 28.2922C37.9888 27.8355 38.5795 27.2368 39.0314 26.5343C39.4833 25.8318 39.7867 25.0409 39.9221 24.2122C40.1835 22.5502 39.782 20.8761 38.7977 19.6222L38.755 19.58C37.7294 18.4063 36.2503 17.88 34.7965 17.88C33.4521 17.88 32.0757 18.3098 31.0447 19.3257C28.3465 17.7522 25.0122 16.7594 21.3337 16.5622V11.9722C21.3337 10.6394 22.0793 9.72 23.5424 9.72C24.236 9.72 25.0949 10.0546 26.4193 10.5278C27.5436 10.9318 29.0027 11.3778 30.878 11.5043C31.3314 12.8344 32.5558 13.8 34.0043 13.8C35.8381 13.8 37.3386 12.27 37.3386 10.4C37.3386 8.53 35.8381 7 34.0043 7C32.7439 7 31.6542 7.7276 31.086 8.78568C29.4869 8.69048 28.3305 8.35048 27.2942 7.97784C26.0899 7.54672 24.9802 7 23.5424 7ZM20 19.24C24.2039 19.24 27.9558 20.4191 30.5872 22.2157C33.2174 24.0109 34.6711 26.3161 34.6711 28.76C34.6711 31.2039 33.2174 33.5091 30.5859 35.3057C27.9558 37.1009 24.2039 38.28 20 38.28C15.7961 38.28 12.0442 37.1009 9.41278 35.3043C6.78265 33.5091 5.32887 31.2039 5.32887 28.76C5.32887 26.3161 6.78265 24.0109 9.41412 22.2143C12.0429 20.4191 15.7961 19.24 20 19.24ZM5.2035 20.6C5.71032 20.6 6.20914 20.7278 6.62127 20.94C5.17283 22.1776 4.04715 23.6491 3.36961 25.2757C3.03965 24.8425 2.82427 24.3302 2.74409 23.7878C2.59871 22.8739 2.85879 21.9287 3.28692 21.3643C3.29225 21.3548 3.28158 21.333 3.28692 21.3235C3.69238 20.887 4.4126 20.6 5.2035 20.6V20.6ZM34.7965 20.6C35.5874 20.6 36.3076 20.8856 36.7131 21.3222C36.7184 21.3276 36.7077 21.3602 36.7131 21.3643C37.1399 21.9287 37.4013 22.8739 37.2559 23.7878C37.1755 24.33 36.9596 24.8419 36.6291 25.2743C35.9528 23.6491 34.8285 22.1776 33.3787 20.94C33.7909 20.7278 34.291 20.6 34.7965 20.6V20.6ZM13.3313 23.32C12.6238 23.32 11.9454 23.6066 11.4451 24.1167C10.9449 24.6268 10.6638 25.3186 10.6638 26.04C10.6638 26.7614 10.9449 27.4532 11.4451 27.9633C11.9454 28.4734 12.6238 28.76 13.3313 28.76C14.0388 28.76 14.7172 28.4734 15.2175 27.9633C15.7177 27.4532 15.9988 26.7614 15.9988 26.04C15.9988 25.3186 15.7177 24.6268 15.2175 24.1167C14.7172 23.6066 14.0388 23.32 13.3313 23.32ZM26.6687 23.32C25.9612 23.32 25.2828 23.6066 24.7825 24.1167C24.2823 24.6268 24.0012 25.3186 24.0012 26.04C24.0012 26.7614 24.2823 27.4532 24.7825 27.9633C25.2828 28.4734 25.9612 28.76 26.6687 28.76C27.3762 28.76 28.0546 28.4734 28.5549 27.9633C29.0551 27.4532 29.3362 26.7614 29.3362 26.04C29.3362 25.3186 29.0551 24.6268 28.5549 24.1167C28.0546 23.6066 27.3762 23.32 26.6687 23.32ZM27.0021 30.8422C25.471 32.2933 22.8969 33.2222 20 33.2222C17.1031 33.2222 14.529 32.2824 12.9979 31.0122C13.8515 33.3718 16.5923 35.56 20 35.56C23.4077 35.56 26.1485 33.3813 27.0021 30.8422Z" fill="white"/>
<path d="M6.37967 10.1368C5.95022 9.25031 5.44636 8.35494 4.46267 8.35494C4.27508 8.35494 4.08748 8.38744 3.91462 8.47031L3.5813 7.76912C3.98826 7.4035 4.64561 7.11262 5.49132 7.11262C6.80679 7.11262 7.48196 7.77725 8.01838 8.62388C8.3362 7.90075 8.48736 6.92331 8.48736 5.71187C8.48736 2.68613 7.58429 1.13263 5.47582 1.13263C3.39836 1.13263 2.49993 2.68613 2.49993 5.71187C2.49993 8.72138 3.39836 10.2586 5.47659 10.2586C5.80604 10.2586 6.10526 10.2212 6.38044 10.1368H6.37967ZM6.89516 11.193C6.4325 11.3233 5.95565 11.3899 5.47659 11.3913C2.70845 11.3913 0 9.07725 0 5.71187C0 2.31481 2.70923 0 5.47582 0C8.28969 0 10.9718 2.29775 10.9718 5.71187C10.9718 7.61069 10.1269 9.15363 8.8982 10.1514C9.29509 10.7746 9.70438 11.1889 10.2726 11.1889C10.8943 11.1889 11.1447 10.6852 11.1865 10.2911H11.995C12.0423 10.8168 11.7919 13 9.53152 13C8.16179 13 7.43855 12.168 6.89593 11.193H6.89516Z" fill="white"/>
</svg>
