<svg width="34" height="28" viewBox="0 0 34 28" fill="none" xmlns="http://www.w3.org/2000/svg">
<path d="M5.9497 6.58824C5.9497 5.49617 6.39745 4.44883 7.19444 3.67662C7.99143 2.90441 9.07238 2.47059 10.1995 2.47059C11.3266 2.47059 12.4076 2.90441 13.2045 3.67662C14.0015 4.44883 14.4493 5.49617 14.4493 6.58824C14.4493 7.6803 14.0015 8.72764 13.2045 9.49985C12.4076 10.2721 11.3266 10.7059 10.1995 10.7059C9.07238 10.7059 7.99143 10.2721 7.19444 9.49985C6.39745 8.72764 5.9497 7.6803 5.9497 6.58824ZM10.1995 0C8.39611 0 6.66659 0.694115 5.3914 1.92965C4.11622 3.16518 3.39983 4.84093 3.39983 6.58824C3.39983 8.33554 4.11622 10.0113 5.3914 11.2468C6.66659 12.4824 8.39611 13.1765 10.1995 13.1765C12.0029 13.1765 13.7324 12.4824 15.0076 11.2468C16.2828 10.0113 16.9992 8.33554 16.9992 6.58824C16.9992 4.84093 16.2828 3.16518 15.0076 1.92965C13.7324 0.694115 12.0029 0 10.1995 0ZM22.9489 8.23529C22.9489 7.58005 23.2175 6.95165 23.6957 6.48832C24.1739 6.025 24.8225 5.76471 25.4987 5.76471C26.175 5.76471 26.8236 6.025 27.3018 6.48832C27.78 6.95165 28.0486 7.58005 28.0486 8.23529C28.0486 8.89054 27.78 9.51894 27.3018 9.98226C26.8236 10.4456 26.175 10.7059 25.4987 10.7059C24.8225 10.7059 24.1739 10.4456 23.6957 9.98226C23.2175 9.51894 22.9489 8.89054 22.9489 8.23529ZM25.4987 3.29412C24.1462 3.29412 22.849 3.8147 21.8927 4.74135C20.9363 5.66801 20.399 6.92481 20.399 8.23529C20.399 9.54578 20.9363 10.8026 21.8927 11.7292C22.849 12.6559 24.1462 13.1765 25.4987 13.1765C26.8513 13.1765 28.1484 12.6559 29.1048 11.7292C30.0612 10.8026 30.5985 9.54578 30.5985 8.23529C30.5985 6.92481 30.0612 5.66801 29.1048 4.74135C28.1484 3.8147 26.8513 3.29412 25.4987 3.29412ZM20.8206 24.7685C22.0156 25.2379 23.5472 25.5294 25.5004 25.5294C29.3796 25.5294 31.5963 24.3814 32.805 22.9633C33.3914 22.2748 33.6889 21.5798 33.8419 21.0478C33.9291 20.7395 33.9821 20.4231 34 20.104V20.0595C34 19.5882 33.9042 19.1215 33.718 18.6861C33.5319 18.2507 33.259 17.855 32.9151 17.5218C32.5711 17.1885 32.1628 16.9241 31.7134 16.7438C31.264 16.5634 30.7823 16.4706 30.2959 16.4706H20.705C20.6574 16.4706 20.6115 16.4706 20.5656 16.4739C21.2353 17.1492 21.7215 17.9974 21.9527 18.9412H30.2959C30.9283 18.9412 31.4416 19.4336 31.4501 20.0431C31.438 20.1611 31.4153 20.278 31.3821 20.3922C31.2771 20.7585 31.0915 21.0985 30.8382 21.3887C30.2432 22.0904 28.8459 23.0588 25.5004 23.0588C23.8345 23.0588 22.6514 22.8184 21.8116 22.4906C21.628 23.1494 21.3254 23.9449 20.8206 24.7685ZM3.82481 16.4706C2.81041 16.4706 1.83755 16.861 1.12026 17.556C0.40297 18.251 0 19.1936 0 20.1765V20.6344C0.00199785 20.7489 0.00994072 20.8632 0.0237987 20.9769C0.164177 22.2025 0.618829 23.3746 1.34633 24.3864C2.73686 26.3101 5.39213 28 10.1995 28C15.0069 28 17.6621 26.3118 19.0526 24.3847C19.7803 23.373 20.235 22.2009 20.3752 20.9753C20.3872 20.8619 20.3951 20.7482 20.399 20.6344V20.1765C20.399 19.1936 19.996 18.251 19.2787 17.556C18.5614 16.861 17.5886 16.4706 16.5742 16.4706H3.82481ZM2.54987 20.5998V20.1765C2.54987 19.8489 2.6842 19.5346 2.92329 19.303C3.16239 19.0713 3.48667 18.9412 3.82481 18.9412H16.5742C16.9123 18.9412 17.2366 19.0713 17.4757 19.303C17.7148 19.5346 17.8491 19.8489 17.8491 20.1765V20.5998L17.8372 20.7315C17.7403 21.5354 17.4402 22.3037 16.9635 22.9682C16.1254 24.1294 14.3167 25.5294 10.1995 25.5294C6.0823 25.5294 4.27359 24.1294 3.43383 22.9682C2.95767 22.3035 2.65814 21.5353 2.56177 20.7315C2.55661 20.6877 2.55265 20.6438 2.54987 20.5998Z" fill="white"/>
</svg>
