<svg width="34" height="34" viewBox="0 0 34 34" fill="none" xmlns="http://www.w3.org/2000/svg">
<path d="M0 28.3333H14.1667V31.1667H0V28.3333ZM0 19.8333H14.1667V22.6667H0V19.8333ZM31.1667 14.1667H2.83333C2.08189 14.1667 1.36122 13.8682 0.829864 13.3368C0.298511 12.8054 0 12.0848 0 11.3333V2.83333C0 2.08189 0.298511 1.36122 0.829864 0.829864C1.36122 0.298511 2.08189 0 2.83333 0H31.1667C31.9181 0 32.6388 0.298511 33.1701 0.829864C33.7015 1.36122 34 2.08189 34 2.83333V11.3333C34 12.0848 33.7015 12.8054 33.1701 13.3368C32.6388 13.8682 31.9181 14.1667 31.1667 14.1667ZM2.83333 2.83333V11.3333H31.1667V2.83333H2.83333ZM31.1667 34H22.6667C21.9152 34 21.1945 33.7015 20.6632 33.1701C20.1318 32.6388 19.8333 31.9181 19.8333 31.1667V22.6667C19.8333 21.9152 20.1318 21.1945 20.6632 20.6632C21.1945 20.1318 21.9152 19.8333 22.6667 19.8333H31.1667C31.9181 19.8333 32.6388 20.1318 33.1701 20.6632C33.7015 21.1945 34 21.9152 34 22.6667V31.1667C34 31.9181 33.7015 32.6388 33.1701 33.1701C32.6388 33.7015 31.9181 34 31.1667 34ZM22.6667 22.6667V31.1667H31.1667V22.6667H22.6667Z" fill="white"/>
</svg>
