<svg width="34" height="27" viewBox="0 0 34 27" fill="none" xmlns="http://www.w3.org/2000/svg">
<path d="M6.07143 7.36364C5.74938 7.36364 5.44052 7.49294 5.2128 7.7231C4.98508 7.95326 4.85714 8.26542 4.85714 8.59091C4.85714 8.9164 4.98508 9.22856 5.2128 9.45872C5.44052 9.68888 5.74938 9.81818 6.07143 9.81818H23.0714C23.3935 9.81818 23.7023 9.68888 23.9301 9.45872C24.1578 9.22856 24.2857 8.9164 24.2857 8.59091C24.2857 8.26542 24.1578 7.95326 23.9301 7.7231C23.7023 7.49294 23.3935 7.36364 23.0714 7.36364H6.07143ZM6.07143 12.2727C5.74938 12.2727 5.44052 12.402 5.2128 12.6322C4.98508 12.8623 4.85714 13.1745 4.85714 13.5V18.4091C4.85714 18.7346 4.98508 19.0467 5.2128 19.2769C5.44052 19.5071 5.74938 19.6364 6.07143 19.6364H10.9286C11.2506 19.6364 11.5595 19.5071 11.7872 19.2769C12.0149 19.0467 12.1429 18.7346 12.1429 18.4091V13.5C12.1429 13.1745 12.0149 12.8623 11.7872 12.6322C11.5595 12.402 11.2506 12.2727 10.9286 12.2727H6.07143ZM7.28571 17.1818V14.7273H9.71429V17.1818H7.28571ZM15.7857 12.2727C15.4637 12.2727 15.1548 12.402 14.9271 12.6322C14.6994 12.8623 14.5714 13.1745 14.5714 13.5C14.5714 13.8255 14.6994 14.1377 14.9271 14.3678C15.1548 14.598 15.4637 14.7273 15.7857 14.7273H23.0714C23.3935 14.7273 23.7023 14.598 23.9301 14.3678C24.1578 14.1377 24.2857 13.8255 24.2857 13.5C24.2857 13.1745 24.1578 12.8623 23.9301 12.6322C23.7023 12.402 23.3935 12.2727 23.0714 12.2727H15.7857ZM15.7857 17.1818C15.4637 17.1818 15.1548 17.3111 14.9271 17.5413C14.6994 17.7714 14.5714 18.0836 14.5714 18.4091C14.5714 18.7346 14.6994 19.0467 14.9271 19.2769C15.1548 19.5071 15.4637 19.6364 15.7857 19.6364H23.0714C23.3935 19.6364 23.7023 19.5071 23.9301 19.2769C24.1578 19.0467 24.2857 18.7346 24.2857 18.4091C24.2857 18.0836 24.1578 17.7714 23.9301 17.5413C23.7023 17.3111 23.3935 17.1818 23.0714 17.1818H15.7857ZM0 4.90909C0 3.60712 0.511733 2.35847 1.42262 1.43784C2.33352 0.517206 3.56895 0 4.85714 0H24.2857C25.5739 0 26.8093 0.517206 27.7202 1.43784C28.6311 2.35847 29.1429 3.60712 29.1429 4.90909C30.4311 4.90909 31.6665 5.4263 32.5774 6.34693C33.4883 7.26756 34 8.51621 34 9.81818V20.8636C34 22.4911 33.3603 24.0519 32.2217 25.2027C31.0831 26.3535 29.5388 27 27.9286 27H6.07143C4.46119 27 2.91689 26.3535 1.77828 25.2027C0.639666 24.0519 0 22.4911 0 20.8636V4.90909ZM27.9286 20.8636C27.6065 20.8636 27.2977 20.7343 27.0699 20.5042C26.8422 20.274 26.7143 19.9619 26.7143 19.6364V4.90909C26.7143 4.2581 26.4584 3.63378 26.003 3.17347C25.5475 2.71315 24.9298 2.45455 24.2857 2.45455H4.85714C4.21305 2.45455 3.59533 2.71315 3.13988 3.17347C2.68444 3.63378 2.42857 4.2581 2.42857 4.90909V20.8636C2.42857 21.8401 2.81237 22.7766 3.49554 23.4671C4.17871 24.1575 5.10528 24.5455 6.07143 24.5455H27.9286C28.8947 24.5455 29.8213 24.1575 30.5045 23.4671C31.1876 22.7766 31.5714 21.8401 31.5714 20.8636V9.81818C31.5714 9.1672 31.3156 8.54287 30.8601 8.08256C30.4047 7.62224 29.787 7.36364 29.1429 7.36364V19.6364C29.1429 19.9619 29.0149 20.274 28.7872 20.5042C28.5595 20.7343 28.2506 20.8636 27.9286 20.8636Z" fill="white"/>
</svg>
