<svg width="34" height="34" viewBox="0 0 34 34" fill="none" xmlns="http://www.w3.org/2000/svg">
<path d="M25.8967 24.2049L9.79994 8.10808V0.204884H0.199951V9.80487H8.10314L24.1999 25.9017V33.8049H33.7999V24.2049H25.8967ZM7.39994 7.40488H2.59995V2.60488H7.39994V7.40488ZM31.3999 31.4049H26.5999V26.6049H31.3999V31.4049Z" fill="white"/>
<path d="M33.7999 5.00497C33.8037 3.83683 33.3805 2.70758 32.6098 1.82974C31.8391 0.951895 30.7742 0.38599 29.6154 0.238522C28.4566 0.0910552 27.2838 0.372195 26.3178 1.02903C25.3519 1.68587 24.6592 2.67311 24.3703 3.80497H13.4V6.20497H24.3703C24.5853 7.03 25.0164 7.78275 25.6193 8.38561C26.2221 8.98847 26.9749 9.41961 27.7999 9.63456V20.6049H30.1999V9.63456C31.2277 9.37004 32.1387 8.77205 32.7902 7.93426C33.4416 7.09647 33.7968 6.06623 33.7999 5.00497ZM28.9999 7.40496C28.5253 7.40496 28.0612 7.26421 27.6666 7.00049C27.2719 6.73678 26.9643 6.36195 26.7826 5.92341C26.601 5.48486 26.5534 5.0023 26.6461 4.53675C26.7387 4.0712 26.9672 3.64356 27.3029 3.30791C27.6385 2.97227 28.0662 2.74369 28.5317 2.65108C28.9973 2.55848 29.4798 2.60601 29.9184 2.78766C30.3569 2.96931 30.7317 3.27692 30.9955 3.6716C31.2592 4.06628 31.3999 4.53029 31.3999 5.00497C31.3993 5.64129 31.1462 6.25137 30.6963 6.70132C30.2463 7.15127 29.6363 7.40433 28.9999 7.40496ZM20.5999 27.8049H9.62955C9.4146 26.9799 8.98347 26.2272 8.38061 25.6243C7.77775 25.0214 7.02499 24.5903 6.19996 24.3753V13.405H3.79996V24.3753C2.98155 24.5854 2.23328 25.0083 1.63111 25.6011C1.02895 26.1938 0.594319 26.9353 0.37134 27.7503C0.148361 28.5653 0.144971 29.4248 0.361513 30.2415C0.578055 31.0582 1.00682 31.8031 1.60429 32.4006C2.20176 32.9981 2.94667 33.4268 3.7634 33.6434C4.58013 33.8599 5.43962 33.8565 6.25461 33.6336C7.06961 33.4106 7.81111 32.976 8.40385 32.3738C8.99659 31.7716 9.41946 31.0234 9.62955 30.2049H20.5999V27.8049ZM4.99996 31.4049C4.52528 31.4049 4.06127 31.2642 3.66659 31.0005C3.27191 30.7368 2.9643 30.3619 2.78265 29.9234C2.601 29.4848 2.55347 29.0023 2.64608 28.5367C2.73868 28.0712 2.96726 27.6435 3.3029 27.3079C3.63855 26.9722 4.06619 26.7437 4.53174 26.6511C4.9973 26.5585 5.47986 26.606 5.9184 26.7876C6.35694 26.9693 6.73177 27.2769 6.99548 27.6716C7.2592 28.0663 7.39996 28.5303 7.39996 29.0049C7.39932 29.6413 7.14626 30.2513 6.69631 30.7013C6.24636 31.1512 5.63628 31.4043 4.99996 31.4049Z" fill="white"/>
</svg>
