<svg width="614" height="111" viewBox="0 0 614 111" fill="none" xmlns="http://www.w3.org/2000/svg">
<path d="M419.045 79.0344C417.803 79.0344 416.735 78.595 415.841 77.7162C414.947 76.8222 414.5 75.7465 414.5 74.4889C414.5 73.2465 414.947 72.1859 415.841 71.3071C416.735 70.4131 417.803 69.9662 419.045 69.9662C420.288 69.9662 421.356 70.4131 422.25 71.3071C423.144 72.1859 423.591 73.2465 423.591 74.4889C423.591 75.3222 423.379 76.0874 422.955 76.7844C422.545 77.4662 422 78.0116 421.318 78.4207C420.636 78.8298 419.879 79.0344 419.045 79.0344ZM448.989 43.6934V49.148H429.92V43.6934H448.989ZM435.034 35.3298H441.83V68.3525C441.83 69.6707 442.027 70.6631 442.42 71.3298C442.814 71.9813 443.322 72.4283 443.943 72.6707C444.58 72.898 445.269 73.0116 446.011 73.0116C446.557 73.0116 447.034 72.9738 447.443 72.898C447.852 72.8222 448.17 72.7616 448.398 72.7162L449.625 78.3298C449.231 78.4813 448.67 78.6328 447.943 78.7844C447.216 78.951 446.307 79.0419 445.216 79.0571C443.428 79.0874 441.761 78.7692 440.216 78.1025C438.67 77.4359 437.42 76.4056 436.466 75.0116C435.511 73.6177 435.034 71.8677 435.034 69.7616V35.3298ZM471.176 79.3071C467.737 79.3071 464.775 78.5722 462.29 77.1025C459.82 75.6177 457.911 73.5344 456.562 70.8525C455.229 68.1556 454.562 64.9965 454.562 61.3753C454.562 57.7995 455.229 54.648 456.562 51.9207C457.911 49.1934 459.79 47.0647 462.199 45.5344C464.623 44.0041 467.456 43.2389 470.699 43.2389C472.669 43.2389 474.578 43.5647 476.426 44.2162C478.275 44.8677 479.934 45.8904 481.403 47.2844C482.873 48.6783 484.032 50.4889 484.881 52.7162C485.729 54.9283 486.153 57.6177 486.153 60.7844V63.1934H458.403V58.1025H479.494C479.494 56.3147 479.131 54.7313 478.403 53.3525C477.676 51.9586 476.653 50.8601 475.335 50.0571C474.032 49.2541 472.502 48.8525 470.744 48.8525C468.835 48.8525 467.169 49.3222 465.744 50.2616C464.335 51.1859 463.244 52.398 462.472 53.898C461.714 55.3828 461.335 56.9965 461.335 58.7389V62.7162C461.335 65.0495 461.744 67.0344 462.562 68.6707C463.396 70.3071 464.555 71.5571 466.04 72.4207C467.525 73.2692 469.259 73.6934 471.244 73.6934C472.532 73.6934 473.706 73.5116 474.767 73.148C475.828 72.7692 476.744 72.2086 477.517 71.4662C478.29 70.7238 478.881 69.8071 479.29 68.7162L485.722 69.8753C485.206 71.7692 484.282 73.4283 482.949 74.8525C481.631 76.2616 479.972 77.3601 477.972 78.148C475.987 78.9207 473.722 79.3071 471.176 79.3071ZM503.852 79.3753C501.64 79.3753 499.64 78.9662 497.852 78.148C496.064 77.3147 494.648 76.1101 493.602 74.5344C492.572 72.9586 492.057 71.0268 492.057 68.7389C492.057 66.7692 492.436 65.148 493.193 63.8753C493.951 62.6025 494.973 61.595 496.261 60.8525C497.549 60.1101 498.989 59.5495 500.58 59.1707C502.17 58.7919 503.792 58.5041 505.443 58.3071C507.534 58.0647 509.231 57.8677 510.534 57.7162C511.837 57.5495 512.784 57.2844 513.375 56.9207C513.966 56.5571 514.261 55.9662 514.261 55.148V54.9889C514.261 53.0041 513.701 51.4662 512.58 50.3753C511.473 49.2844 509.822 48.7389 507.625 48.7389C505.337 48.7389 503.534 49.2465 502.216 50.2616C500.913 51.2616 500.011 52.3753 499.511 53.6025L493.125 52.148C493.883 50.0268 494.989 48.3147 496.443 47.0116C497.913 45.6934 499.602 44.7389 501.511 44.148C503.42 43.5419 505.428 43.2389 507.534 43.2389C508.928 43.2389 510.405 43.4056 511.966 43.7389C513.542 44.0571 515.011 44.648 516.375 45.5116C517.754 46.3753 518.883 47.6101 519.761 49.2162C520.64 50.8071 521.08 52.8753 521.08 55.4207V78.6025H514.443V73.8298H514.17C513.731 74.7086 513.072 75.5722 512.193 76.4207C511.314 77.2692 510.186 77.9738 508.807 78.5344C507.428 79.095 505.777 79.3753 503.852 79.3753ZM505.33 73.9207C507.208 73.9207 508.814 73.5495 510.148 72.8071C511.496 72.0647 512.519 71.095 513.216 69.898C513.928 68.6859 514.284 67.3904 514.284 66.0116V61.5116C514.042 61.7541 513.572 61.9813 512.875 62.1934C512.193 62.3904 511.413 62.5647 510.534 62.7162C509.655 62.8525 508.799 62.9813 507.966 63.1025C507.133 63.2086 506.436 63.2995 505.875 63.3753C504.557 63.5419 503.352 63.8222 502.261 64.2162C501.186 64.6101 500.322 65.1783 499.67 65.9207C499.034 66.648 498.716 67.6177 498.716 68.8298C498.716 70.5116 499.337 71.7844 500.58 72.648C501.822 73.4965 503.405 73.9207 505.33 73.9207ZM530.131 78.6025V43.6934H536.653V49.3753H537.085C537.813 47.451 539.002 45.951 540.653 44.8753C542.305 43.7844 544.282 43.2389 546.585 43.2389C548.919 43.2389 550.873 43.7844 552.449 44.8753C554.04 45.9662 555.214 47.4662 555.972 49.3753H556.335C557.169 47.5116 558.494 46.0268 560.312 44.9207C562.131 43.7995 564.297 43.2389 566.812 43.2389C569.979 43.2389 572.562 44.2313 574.562 46.2162C576.578 48.201 577.585 51.1934 577.585 55.1934V78.6025H570.79V55.8298C570.79 53.4662 570.146 51.7541 568.858 50.6934C567.57 49.6328 566.032 49.1025 564.244 49.1025C562.032 49.1025 560.312 49.7844 559.085 51.148C557.858 52.4965 557.244 54.2313 557.244 56.3525V78.6025H550.472V55.398C550.472 53.5041 549.881 51.9813 548.699 50.8298C547.517 49.6783 545.979 49.1025 544.085 49.1025C542.797 49.1025 541.608 49.4434 540.517 50.1253C539.441 50.7919 538.57 51.7238 537.903 52.9207C537.252 54.1177 536.926 55.5041 536.926 57.0798V78.6025H530.131Z" fill="#FF5427"/>
<path d="M11.3636 32.4545V79H4.56818V32.4545H11.3636ZM20.5057 79V44.0909H27.3011V79H20.5057ZM23.9375 38.7045C22.7557 38.7045 21.7405 38.3106 20.892 37.5227C20.0587 36.7197 19.642 35.7651 19.642 34.6591C19.642 33.5379 20.0587 32.5833 20.892 31.7955C21.7405 30.9924 22.7557 30.5909 23.9375 30.5909C25.1193 30.5909 26.1269 30.9924 26.9602 31.7955C27.8087 32.5833 28.233 33.5379 28.233 34.6591C28.233 35.7651 27.8087 36.7197 26.9602 37.5227C26.1269 38.3106 25.1193 38.7045 23.9375 38.7045ZM43.2386 58.2727V79H36.4432V44.0909H42.9659V49.7727H43.3977C44.2008 47.9242 45.4583 46.4394 47.1705 45.3182C48.8977 44.197 51.072 43.6364 53.6932 43.6364C56.072 43.6364 58.1553 44.1364 59.9432 45.1364C61.7311 46.1212 63.1174 47.5909 64.1023 49.5455C65.0871 51.5 65.5795 53.9167 65.5795 56.7955V79H58.7841V57.6136C58.7841 55.0833 58.125 53.1061 56.8068 51.6818C55.4886 50.2424 53.678 49.5227 51.375 49.5227C49.7992 49.5227 48.3977 49.8636 47.1705 50.5455C45.9583 51.2273 44.9962 52.2273 44.2841 53.5455C43.5871 54.8485 43.2386 56.4242 43.2386 58.2727ZM80.9432 67.1591L80.8977 58.8636H82.0795L95.9886 44.0909H104.125L88.2614 60.9091H87.1932L80.9432 67.1591ZM74.6932 79V32.4545H81.4886V79H74.6932ZM96.7386 79L84.2386 62.4091L88.9205 57.6591L105.08 79H96.7386ZM128.511 56.3864V62.2727H107.875V56.3864H128.511ZM138.114 79V32.4545H144.909V49.75H145.318C145.712 49.0227 146.28 48.1818 147.023 47.2273C147.765 46.2727 148.795 45.4394 150.114 44.7273C151.432 44 153.174 43.6364 155.341 43.6364C158.159 43.6364 160.674 44.3485 162.886 45.7727C165.098 47.197 166.833 49.25 168.091 51.9318C169.364 54.6136 170 57.8409 170 61.6136C170 65.3864 169.371 68.6212 168.114 71.3182C166.856 74 165.129 76.0682 162.932 77.5227C160.735 78.9621 158.227 79.6818 155.409 79.6818C153.288 79.6818 151.553 79.3258 150.205 78.6136C148.871 77.9015 147.826 77.0682 147.068 76.1136C146.311 75.1591 145.727 74.3106 145.318 73.5682H144.75V79H138.114ZM144.773 61.5455C144.773 64 145.129 66.1515 145.841 68C146.553 69.8485 147.583 71.2955 148.932 72.3409C150.28 73.3712 151.932 73.8864 153.886 73.8864C155.917 73.8864 157.614 73.3485 158.977 72.2727C160.341 71.1818 161.371 69.7045 162.068 67.8409C162.78 65.9773 163.136 63.8788 163.136 61.5455C163.136 59.2424 162.788 57.1742 162.091 55.3409C161.409 53.5076 160.379 52.0606 159 51C157.636 49.9394 155.932 49.4091 153.886 49.4091C151.917 49.4091 150.25 49.9167 148.886 50.9318C147.538 51.947 146.515 53.3636 145.818 55.1818C145.121 57 144.773 59.1212 144.773 61.5455ZM199.744 64.5227V44.0909H206.562V79H199.881V72.9545H199.517C198.714 74.8182 197.426 76.3712 195.653 77.6136C193.896 78.8409 191.706 79.4545 189.085 79.4545C186.843 79.4545 184.858 78.9621 183.131 77.9773C181.419 76.9773 180.07 75.5 179.085 73.5455C178.116 71.5909 177.631 69.1742 177.631 66.2955V44.0909H184.426V65.4773C184.426 67.8561 185.085 69.75 186.403 71.1591C187.722 72.5682 189.434 73.2727 191.54 73.2727C192.813 73.2727 194.078 72.9545 195.335 72.3182C196.608 71.6818 197.661 70.7197 198.494 69.4318C199.343 68.1439 199.759 66.5076 199.744 64.5227ZM215.693 79V44.0909H222.489V79H215.693ZM219.125 38.7045C217.943 38.7045 216.928 38.3106 216.08 37.5227C215.246 36.7197 214.83 35.7651 214.83 34.6591C214.83 33.5379 215.246 32.5833 216.08 31.7955C216.928 30.9924 217.943 30.5909 219.125 30.5909C220.307 30.5909 221.314 30.9924 222.148 31.7955C222.996 32.5833 223.42 33.5379 223.42 34.6591C223.42 35.7651 222.996 36.7197 222.148 37.5227C221.314 38.3106 220.307 38.7045 219.125 38.7045ZM238.426 32.4545V79H231.631V32.4545H238.426ZM260.636 79.6818C257.818 79.6818 255.303 78.9621 253.091 77.5227C250.894 76.0682 249.167 74 247.909 71.3182C246.667 68.6212 246.045 65.3864 246.045 61.6136C246.045 57.8409 246.674 54.6136 247.932 51.9318C249.205 49.25 250.947 47.197 253.159 45.7727C255.371 44.3485 257.879 43.6364 260.682 43.6364C262.848 43.6364 264.591 44 265.909 44.7273C267.242 45.4394 268.273 46.2727 269 47.2273C269.742 48.1818 270.318 49.0227 270.727 49.75H271.136V32.4545H277.932V79H271.295V73.5682H270.727C270.318 74.3106 269.727 75.1591 268.955 76.1136C268.197 77.0682 267.152 77.9015 265.818 78.6136C264.485 79.3258 262.758 79.6818 260.636 79.6818ZM262.136 73.8864C264.091 73.8864 265.742 73.3712 267.091 72.3409C268.455 71.2955 269.485 69.8485 270.182 68C270.894 66.1515 271.25 64 271.25 61.5455C271.25 59.1212 270.902 57 270.205 55.1818C269.508 53.3636 268.485 51.947 267.136 50.9318C265.788 49.9167 264.121 49.4091 262.136 49.4091C260.091 49.4091 258.386 49.9394 257.023 51C255.659 52.0606 254.629 53.5076 253.932 55.3409C253.25 57.1742 252.909 59.2424 252.909 61.5455C252.909 63.8788 253.258 65.9773 253.955 67.8409C254.652 69.7045 255.682 71.1818 257.045 72.2727C258.424 73.3485 260.121 73.8864 262.136 73.8864ZM287.631 79V44.0909H294.426V79H287.631ZM291.062 38.7045C289.881 38.7045 288.866 38.3106 288.017 37.5227C287.184 36.7197 286.767 35.7651 286.767 34.6591C286.767 33.5379 287.184 32.5833 288.017 31.7955C288.866 30.9924 289.881 30.5909 291.062 30.5909C292.244 30.5909 293.252 30.9924 294.085 31.7955C294.934 32.5833 295.358 33.5379 295.358 34.6591C295.358 35.7651 294.934 36.7197 294.085 37.5227C293.252 38.3106 292.244 38.7045 291.062 38.7045ZM310.364 58.2727V79H303.568V44.0909H310.091V49.7727H310.523C311.326 47.9242 312.583 46.4394 314.295 45.3182C316.023 44.197 318.197 43.6364 320.818 43.6364C323.197 43.6364 325.28 44.1364 327.068 45.1364C328.856 46.1212 330.242 47.5909 331.227 49.5455C332.212 51.5 332.705 53.9167 332.705 56.7955V79H325.909V57.6136C325.909 55.0833 325.25 53.1061 323.932 51.6818C322.614 50.2424 320.803 49.5227 318.5 49.5227C316.924 49.5227 315.523 49.8636 314.295 50.5455C313.083 51.2273 312.121 52.2273 311.409 53.5455C310.712 54.8485 310.364 56.4242 310.364 58.2727ZM356.455 92.8182C353.682 92.8182 351.295 92.4545 349.295 91.7273C347.311 91 345.689 90.0379 344.432 88.8409C343.174 87.6439 342.235 86.3333 341.614 84.9091L347.455 82.5C347.864 83.1667 348.409 83.8712 349.091 84.6136C349.788 85.3712 350.727 86.0152 351.909 86.5455C353.106 87.0758 354.644 87.3409 356.523 87.3409C359.098 87.3409 361.227 86.7121 362.909 85.4545C364.591 84.2121 365.432 82.2273 365.432 79.5V72.6364H365C364.591 73.3788 364 74.2045 363.227 75.1136C362.47 76.0227 361.424 76.8106 360.091 77.4773C358.758 78.1439 357.023 78.4773 354.886 78.4773C352.129 78.4773 349.644 77.8333 347.432 76.5455C345.235 75.2424 343.492 73.3258 342.205 70.7955C340.932 68.25 340.295 65.1212 340.295 61.4091C340.295 57.697 340.924 54.5152 342.182 51.8636C343.455 49.2121 345.197 47.1818 347.409 45.7727C349.621 44.3485 352.129 43.6364 354.932 43.6364C357.098 43.6364 358.848 44 360.182 44.7273C361.515 45.4394 362.553 46.2727 363.295 47.2273C364.053 48.1818 364.636 49.0227 365.045 49.75H365.545V44.0909H372.205V79.7727C372.205 82.7727 371.508 85.2348 370.114 87.1591C368.72 89.0833 366.833 90.5076 364.455 91.4318C362.091 92.3561 359.424 92.8182 356.455 92.8182ZM356.386 72.8409C358.341 72.8409 359.992 72.3864 361.341 71.4773C362.705 70.553 363.735 69.2348 364.432 67.5227C365.144 65.7955 365.5 63.7273 365.5 61.3182C365.5 58.9697 365.152 56.9015 364.455 55.1136C363.758 53.3258 362.735 51.9318 361.386 50.9318C360.038 49.9167 358.371 49.4091 356.386 49.4091C354.341 49.4091 352.636 49.9394 351.273 51C349.909 52.0455 348.879 53.4697 348.182 55.2727C347.5 57.0758 347.159 59.0909 347.159 61.3182C347.159 63.6061 347.508 65.6136 348.205 67.3409C348.902 69.0682 349.932 70.4167 351.295 71.3864C352.674 72.3561 354.371 72.8409 356.386 72.8409Z" fill="black"/>
<path d="M411.79 13.1177C413.328 13.3822 414.788 12.3585 415.052 10.8298L415.725 6.93548C415.818 6.21688 415.628 5.48997 415.194 4.90652C414.761 4.32307 414.118 3.92817 413.399 3.80428C412.681 3.68039 411.942 3.83708 411.338 4.24163C410.733 4.64619 410.31 5.26734 410.156 5.97539L409.482 9.87474C409.219 11.4009 410.251 12.8556 411.787 13.1197L411.79 13.1177ZM393.59 25.8786L393.668 25.892C394.406 26.019 395.165 25.8493 395.777 25.4203C396.389 24.9912 396.804 24.338 396.93 23.6042C397.057 22.8704 396.885 22.1163 396.453 21.5077C396.02 20.899 395.362 20.4858 394.623 20.3588L394.54 20.3445L394.545 20.3453L390.625 19.6714C389.902 19.578 389.171 19.7657 388.585 20.1955C387.998 20.6253 387.602 21.2638 387.478 21.9778C387.354 22.6917 387.513 23.426 387.921 24.0272C388.329 24.6284 388.955 25.0501 389.667 25.2042L389.672 25.2051L393.59 25.8786ZM398.197 14.6021C398.403 14.92 398.673 15.1933 398.988 15.4054C399.304 15.6175 399.659 15.7642 400.033 15.8365C400.407 15.9088 400.791 15.9053 401.163 15.8263C401.535 15.7472 401.888 15.5942 402.199 15.3764C402.51 15.1586 402.773 14.8806 402.973 14.5589C403.173 14.2373 403.305 13.8787 403.362 13.5047C403.419 13.1307 403.4 12.749 403.304 12.3826C403.209 12.0161 403.041 11.6725 402.809 11.3722L402.806 11.3693L400.51 8.13854C400.303 7.82058 400.034 7.54733 399.718 7.3352C399.403 7.12308 399.047 6.97646 398.674 6.90414C398.3 6.83182 397.915 6.83529 397.543 6.91435C397.171 6.99341 396.819 7.14643 396.508 7.36422C396.197 7.58201 395.934 7.86007 395.734 8.18171C395.534 8.50334 395.401 8.86192 395.344 9.23591C395.287 9.6099 395.307 9.99159 395.402 10.358C395.497 10.7245 395.666 11.0682 395.898 11.3684L395.9 11.3714L398.197 14.6021Z" fill="#FF5427"/>
<path d="M590.826 100.66C589.264 100.66 588 101.916 588 103.467L588 107.419C588.031 108.143 588.342 108.827 588.868 109.329C589.394 109.83 590.095 110.111 590.824 110.111C591.554 110.111 592.255 109.832 592.782 109.331C593.308 108.829 593.62 108.146 593.651 107.422L593.651 103.465C593.651 101.916 592.387 100.657 590.828 100.657L590.826 100.66ZM606.589 85.0001L606.51 85.0001C605.761 85.0001 605.042 85.2959 604.512 85.8224C603.982 86.3489 603.684 87.0629 603.684 87.8075C603.684 88.5521 603.982 89.2662 604.512 89.7927C605.042 90.3192 605.761 90.615 606.51 90.615L606.595 90.615L606.589 90.615L610.567 90.615C611.296 90.5845 611.984 90.2756 612.489 89.7527C612.994 89.2298 613.276 88.5333 613.276 87.8087C613.276 87.0842 612.995 86.3875 612.491 85.8641C611.986 85.3408 611.298 85.0312 610.569 85.0001L610.564 85.0001L606.589 85.0001ZM603.969 96.8936C603.711 96.6153 603.399 96.3917 603.052 96.2361C602.705 96.0805 602.33 95.9962 601.949 95.9883C601.568 95.9803 601.19 96.0489 600.837 96.1899C600.483 96.3309 600.162 96.5414 599.893 96.8087C599.624 97.076 599.411 97.3947 599.269 97.7455C599.127 98.0964 599.057 98.4722 599.065 98.8504C599.072 99.2286 599.156 99.6014 599.313 99.9465C599.469 100.291 599.693 100.602 599.973 100.858L599.976 100.861L602.789 103.655C603.047 103.934 603.358 104.157 603.705 104.313C604.052 104.469 604.428 104.553 604.808 104.561C605.189 104.569 605.567 104.5 605.921 104.359C606.274 104.218 606.595 104.008 606.864 103.74C607.134 103.473 607.346 103.154 607.488 102.804C607.631 102.453 607.7 102.077 607.693 101.699C607.685 101.32 607.601 100.948 607.445 100.603C607.288 100.258 607.064 99.9475 606.784 99.6909L606.781 99.6884L603.969 96.8936Z" fill="#FF5427"/>
<path d="M452 23.5C453.381 23.5 454.5 22.3807 454.5 21C454.5 19.6193 453.381 18.5 452 18.5V23.5ZM452 100.052C453.381 100.052 454.5 98.9324 454.5 97.5517C454.5 96.171 453.381 95.0517 452 95.0517V100.052ZM430.276 23.5H452V18.5H430.276V23.5ZM452 95.0517H430.276V100.052H452V95.0517ZM389.5 59.2759C389.5 81.7958 407.756 100.052 430.276 100.052V95.0517C410.517 95.0517 394.5 79.0343 394.5 59.2759H389.5ZM394.5 59.2759C394.5 39.5174 410.517 23.5 430.276 23.5V18.5C407.756 18.5 389.5 36.756 389.5 59.2759H394.5Z" fill="#FF5427"/>
<path d="M541 95.0518C539.619 95.0518 538.5 96.171 538.5 97.5518C538.5 98.9325 539.619 100.052 541 100.052L541 95.0518ZM541 18.5C539.619 18.5 538.5 19.6193 538.5 21C538.5 22.3807 539.619 23.5 541 23.5L541 18.5ZM562.724 95.0518L541 95.0518L541 100.052L562.724 100.052L562.724 95.0518ZM541 23.5L562.724 23.5L562.724 18.5L541 18.5L541 23.5ZM603.5 59.2759C603.5 36.756 585.244 18.5 562.724 18.5L562.724 23.5C582.483 23.5 598.5 39.5174 598.5 59.2759L603.5 59.2759ZM598.5 59.2759C598.5 79.0344 582.483 95.0518 562.724 95.0518L562.724 100.052C585.244 100.052 603.5 81.7958 603.5 59.2759L598.5 59.2759Z" fill="#FF5427"/>
</svg>
