<svg width="811" height="805" viewBox="0 0 811 805" fill="none" xmlns="http://www.w3.org/2000/svg">
<path fill-rule="evenodd" clip-rule="evenodd" d="M380.92 0.195615C437.318 4.12377 467.87 73.7682 521.817 90.6648C587.759 111.319 668.948 68.9241 725.781 108.209C779.919 145.632 794.993 221.293 804.877 286.328C814.488 349.569 816.768 421.031 781.428 474.366C745.816 528.109 670.715 535.867 616.444 570.705C578.693 594.938 541.449 617.991 509.169 649.134C461.444 695.18 443.17 775.018 380.92 797.937C321.781 819.711 256.29 786.223 197.34 763.945C135.245 740.479 64.4771 719.717 27.7336 664.467C-9.03858 609.174 1.24129 535.933 1.55153 469.545C1.81813 412.496 22.0512 359.425 29.4235 302.854C37.5563 240.447 6.30642 164.935 47.4567 117.292C89.0797 69.1011 170.134 91.4607 230.236 70.356C283.179 51.7651 324.939 -3.7035 380.92 0.195615Z" fill="url(#paint0_radial_0_330)"/>
<defs>
<radialGradient id="paint0_radial_0_330" cx="0" cy="0" r="1" gradientUnits="userSpaceOnUse" gradientTransform="translate(405.5 402.5) rotate(90) scale(402.5 405.5)">
<stop stop-color="#FFB677"/>
<stop offset="1" stop-color="#FFEADF"/>
</radialGradient>
</defs>
</svg>
