<svg width="34" height="27" viewBox="0 0 34 27" fill="none" xmlns="http://www.w3.org/2000/svg">
<path d="M33.5796 14.8173C32.5188 11.8343 29.5574 10.0536 25.656 10.0536C25.503 10.0536 25.3568 10.0571 25.2106 10.064L25.1834 6.45893L31.1758 5.3982C31.3713 5.365 31.4019 5.19024 31.3611 4.99452C31.322 4.80055 31.0772 3.45147 31.0415 3.28896C30.9956 3.06003 30.8681 3.06702 30.6896 3.09848C30.5128 3.12993 25.1647 3.90408 25.1647 3.90408L25.1426 0.272759C25.1409 0.0543201 25.0253 -0.00334747 24.8128 0.000147541L23.0703 0.0281077C22.8918 0.0316027 22.7915 0.113736 22.7949 0.286739L22.851 4.31824C22.851 4.31824 17.6474 5.23917 17.5063 5.26713C17.3635 5.2916 17.2173 5.35975 17.2496 5.51703C17.2819 5.6743 17.5726 7.4288 17.6032 7.56511C17.6338 7.70491 17.7256 7.79054 17.9228 7.75209L22.8935 6.87135L22.953 10.3978C21.1221 10.8889 19.8913 11.8378 19.1178 12.6748C17.8123 14.0851 17.066 15.9724 17.066 17.8527C17.066 20.6242 18.7166 22.2721 21.0235 22.5622C26.3989 23.2385 29.7257 17.2148 30.8307 14.3227C32.6956 16.9545 31.2659 21.9314 27.2709 24.7728C27.1978 24.8235 27.1044 24.9982 27.2148 25.1345L28.2671 26.4557C28.4031 26.6234 28.6173 26.5588 28.7023 26.4959C32.9693 23.4727 34.926 18.6059 33.5796 14.8173ZM21.0235 20.3883C19.3813 20.1769 19.4187 18.7911 19.4187 17.8492C19.4187 16.4984 19.9746 15.0881 20.9079 14.0816C21.4903 13.4567 22.2053 12.9788 22.9972 12.6853L23.1366 20.1594C22.4584 20.4 21.7356 20.4783 21.0235 20.3883ZM25.1494 19.4219L25.2276 12.2414C25.3704 12.2344 25.5098 12.224 25.656 12.224C26.9701 12.224 28.1957 12.4774 28.8604 12.8548C29.5251 13.234 27.1213 17.5958 25.1494 19.4219ZM9.93454 6.02206C9.915 5.94735 9.87144 5.88164 9.81094 5.83563C9.75043 5.78962 9.67656 5.76602 9.60135 5.76867H6.28638C6.21183 5.76609 6.13863 5.78957 6.07873 5.83527C6.01883 5.88098 5.97577 5.94621 5.95659 6.02031L0.0134537 25.3145C-0.015446 25.4037 -0.0052461 25.4474 0.118852 25.4474H3.06492C3.19242 25.4474 3.23322 25.4072 3.25872 25.3215L4.9723 19.5233H10.9154L12.629 25.3215C12.6562 25.4072 12.6953 25.4474 12.8211 25.4474H15.7689C15.8913 25.4474 15.9015 25.4037 15.8743 25.3145C15.8505 25.2272 10.6332 8.29207 9.93454 6.02206ZM5.48399 17.0628L7.94386 7.8884L10.4037 17.0628H5.48399Z" fill="white"/>
</svg>
