<svg width="34" height="34" viewBox="0 0 34 34" fill="none" xmlns="http://www.w3.org/2000/svg">
<path d="M26.9166 0L24.87 7.26276L20.7777 9.40003L24.87 11.5364L26.9166 17.9444L28.9632 11.5354L33.0555 9.39909L28.9632 7.2637L26.9166 0ZM13.2222 5.66665L12.2777 9.44442L9.44442 10.3889L12.2777 11.3333L13.2222 15.1111L14.1666 11.3333L17 10.3889L14.1666 9.44442L13.2222 5.66665ZM0 22.6666C0 22.4161 0.0995036 22.1759 0.276621 21.9988C0.453738 21.8217 0.69396 21.7222 0.944442 21.7222H3.77777C4.02825 21.7222 4.26847 21.8217 4.44559 21.9988C4.62271 22.1759 4.72221 22.4161 4.72221 22.6666V33.0517C4.72221 33.3022 4.62271 33.5424 4.44559 33.7195C4.26847 33.8966 4.02825 33.9961 3.77777 33.9961H0.944442C0.69396 33.9961 0.453738 33.8966 0.276621 33.7195C0.0995036 33.5424 0 33.3022 0 33.0517V22.6676V22.6666ZM11.0547 21.9007C11.9349 21.4993 14.0864 21.9007 14.0864 21.9007L20.3442 23.3041C20.3442 23.3041 21.9092 23.8056 23.3759 23.8056C24.8426 23.8056 23.9652 25.8135 22.9839 26.5143C22.0036 27.215 21.2896 27.1773 21.2896 27.1773L16.2368 27.1159C16.2368 27.1159 20.6379 27.9186 22.3002 28.0188C23.1417 28.0698 24.5857 27.4766 26.2007 26.8146C27.7732 26.1686 29.5063 25.4574 31.0023 25.21C34.0339 24.7094 34.5231 27.4171 33.5447 28.4201C32.5672 29.4231 24.7444 33.234 23.3759 33.7355C22.303 34.1284 21.0063 33.998 19.5433 33.8507C19.1382 33.8101 18.7198 33.7676 18.291 33.7355C16.5816 33.6061 15.2763 33.1905 13.9844 32.7797C12.5979 32.3396 11.2275 31.9042 9.39247 31.8296C8.7767 31.805 7.33548 31.8815 6.61109 31.924V23.5544C7.86342 23.1086 10.3992 22.1982 11.0547 21.8997V21.9007Z" fill="white"/>
</svg>
