<svg width="34" height="35" viewBox="0 0 34 35" fill="none" xmlns="http://www.w3.org/2000/svg">
<path d="M25.3428 0.0999262C25.5819 0.198781 25.7864 0.366368 25.9302 0.581474C26.0741 0.796579 26.1509 1.04953 26.151 1.30832V7.84722H32.6899C32.9489 7.84676 33.2022 7.92321 33.4177 8.06688C33.6332 8.21055 33.8011 8.41497 33.9003 8.65422C33.9995 8.89347 34.0254 9.15679 33.9747 9.41078C33.9241 9.66478 33.7992 9.89801 33.6158 10.0809L28.3847 15.312C28.263 15.4334 28.1186 15.5296 27.9597 15.5951C27.8008 15.6607 27.6306 15.6942 27.4588 15.6939H20.1535L18.218 17.632C18.3214 18.0198 18.3343 18.4261 18.2557 18.8197C18.1771 19.2132 18.0091 19.5834 17.7646 19.9017C17.5202 20.2199 17.2059 20.4778 16.8459 20.6552C16.486 20.8326 16.09 20.925 15.6887 20.925C14.995 20.925 14.3298 20.6495 13.8392 20.159C13.3487 19.6684 13.0732 19.0032 13.0732 18.3095L13.0758 18.1892C13.0937 17.7985 13.199 17.4167 13.384 17.0721C13.569 16.7275 13.8289 16.4288 14.1446 16.1979C14.4603 15.967 14.8238 15.8099 15.2082 15.738C15.5927 15.6662 15.9884 15.6815 16.3661 15.7828L18.3043 13.8447V6.53944C18.304 6.36759 18.3375 6.19736 18.4031 6.03848C18.4686 5.87961 18.5648 5.73521 18.6862 5.61353L23.9173 0.382407C24.1003 0.199626 24.3334 0.0752277 24.5872 0.0249462C24.8409 -0.0253353 25.1039 0.000757906 25.3428 0.0999262V0.0999262ZM26.9173 13.0783L29.5329 10.4628H24.8432C24.4963 10.4628 24.1637 10.325 23.9184 10.0797C23.6732 9.83449 23.5354 9.50185 23.5354 9.15501V4.4653L20.9198 7.08086V13.0783H26.9173ZM31.2382 16.1543C31.6895 19.411 31.1065 22.7272 29.5716 25.6348C28.0366 28.5424 25.6272 30.8944 22.6835 32.3589C19.7398 33.8234 16.4105 34.3263 13.1656 33.7967C9.92064 33.2671 6.92399 31.7317 4.59867 29.4073C2.27334 27.0829 0.73679 24.0869 0.205927 20.8421C-0.324935 17.5974 0.176704 14.2679 1.64003 11.3236C3.10336 8.37935 5.45446 5.96904 8.36143 4.43294C11.2684 2.89685 14.5844 2.31256 17.8413 2.76257L16.8396 3.76433C16.425 4.17896 16.1086 4.68126 15.9137 5.23428L15.6887 5.23166C13.0927 5.23204 10.5555 6.00506 8.40024 7.45226C6.245 8.89946 4.56924 10.9554 3.58637 13.3582C2.6035 15.761 2.35798 18.4019 2.88109 20.9447C3.40421 23.4875 4.67227 25.8171 6.52381 27.6368C8.37534 29.4564 10.7266 30.6839 13.278 31.1628C15.8295 31.6417 18.4658 31.3505 20.8512 30.326C23.2366 29.3016 25.2631 27.5905 26.6727 25.4104C28.0823 23.2304 28.8112 20.6802 28.7665 18.0845C29.3174 17.8897 29.8179 17.5742 30.2312 17.1612L31.2356 16.1543H31.2382ZM15.6887 9.15501C13.8781 9.15501 12.1082 9.69191 10.6028 10.6978C9.09732 11.7037 7.92397 13.1335 7.23109 14.8062C6.53821 16.479 6.35692 18.3196 6.71015 20.0954C7.06338 21.8712 7.93526 23.5024 9.21553 24.7827C10.4958 26.0629 12.127 26.9348 13.9028 27.288C15.6786 27.6413 17.5192 27.46 19.192 26.7671C20.8647 26.0742 22.2945 24.9009 23.3004 23.3954C24.3063 21.89 24.8432 20.1201 24.8432 18.3095H22.2276C22.2276 19.6027 21.8441 20.867 21.1256 21.9423C20.4071 23.0176 19.3859 23.8557 18.1911 24.3506C16.9962 24.8456 15.6815 24.975 14.413 24.7227C13.1446 24.4704 11.9795 23.8477 11.065 22.9332C10.1505 22.0187 9.52776 20.8536 9.27546 19.5852C9.02315 18.3167 9.15264 17.002 9.64756 15.8071C10.1425 14.6123 10.9806 13.5911 12.0559 12.8726C13.1312 12.1541 14.3954 11.7706 15.6887 11.7706V9.15501Z" fill="white"/>
</svg>
