<svg width="34" height="35" viewBox="0 0 34 35" fill="none" xmlns="http://www.w3.org/2000/svg">
<path d="M33.6652 14.0949C33.8819 15.2562 34 16.4704 34 17.7375C34 27.6487 27.3667 34.6961 17.3481 34.6961C15.0697 34.6968 12.8135 34.2486 10.7084 33.377C8.60334 32.5054 6.69063 31.2276 5.07958 29.6165C3.46852 28.0055 2.1907 26.0928 1.31913 23.9877C0.447553 21.8826 -0.000693855 19.6264 8.06167e-07 17.3481C-0.000693855 15.0697 0.447553 12.8135 1.31913 10.7084C2.1907 8.60334 3.46852 6.69063 5.07958 5.07958C6.69063 3.46852 8.60334 2.1907 10.7084 1.31913C12.8135 0.447553 15.0697 -0.000693855 17.3481 8.06167e-07C22.0322 8.06167e-07 25.9463 1.72353 28.9493 4.52206L24.0589 9.41243V9.40009C22.2384 7.66599 19.9281 6.77603 17.3481 6.77603C11.6241 6.77603 6.97165 11.6118 6.97165 17.3375C6.97165 23.0614 11.6241 27.9077 17.3481 27.9077C22.5415 27.9077 26.0767 24.9383 26.8028 20.8603H17.3481V14.0949H33.6669H33.6652Z" fill="white"/>
</svg>
