<svg width="25" height="16" viewBox="0 0 25 16" fill="none" xmlns="http://www.w3.org/2000/svg">
<path d="M22.0224 2.00203H15.0153V0H22.0224V2.00203ZM23.7501 12.0122C23.3077 13.3105 21.7191 15.0152 18.6439 15.0152C15.5668 15.0152 13.0743 13.2845 13.0743 9.33447C13.0743 5.4205 15.4017 3.40846 18.5459 3.40846C21.631 3.40846 23.5149 5.19227 23.9263 7.83895C24.0044 8.34547 24.0354 9.02816 24.0214 9.98113H15.9863C16.1164 13.1954 19.4728 13.2965 20.5789 12.0122H23.7501ZM16.0563 8.00813H21.0264C20.9213 6.45955 19.8892 5.78687 18.5469 5.78687C17.0794 5.78687 16.2675 6.55565 16.0563 8.00813ZM6.4726 15.0032H3.05176e-05V0.0210212H6.96009C12.4417 0.102104 12.5458 5.47055 9.68286 6.93404C13.1474 8.19532 13.2635 15.0032 6.4726 15.0032ZM3.00308 6.00609H6.59072C9.10127 6.00609 9.49967 3.00305 6.2784 3.00305H3.00308V6.00609ZM6.39752 9.00914H3.00308V12.0282H6.34747C9.40557 12.0282 9.21838 9.00914 6.39752 9.00914Z" fill="white"/>
</svg>
