<svg width="20" height="21" viewBox="0 0 20 21" fill="none" xmlns="http://www.w3.org/2000/svg">
<path d="M17.0625 17.0625V6.5625H6.5625V5.90625C6.5625 4.82055 7.44555 3.9375 8.53125 3.9375H10.5V0H8.53125C6.96541 0.00194497 5.46426 0.624833 4.35705 1.73205C3.24983 2.83926 2.62694 4.34041 2.625 5.90625V6.5625H0V10.5H2.625V17.0625H0V21H9.1875V17.0625H6.5625V10.5H13.1617V17.0625H10.5V21H19.6875V17.0625H17.0625Z" fill="white"/>
<path d="M15.0937 3.9375C16.1811 3.9375 17.0625 3.05606 17.0625 1.96875C17.0625 0.881439 16.1811 0 15.0937 0C14.0064 0 13.125 0.881439 13.125 1.96875C13.125 3.05606 14.0064 3.9375 15.0937 3.9375Z" fill="white"/>
</svg>
