<svg width="22" height="21" viewBox="0 0 22 21" fill="none" xmlns="http://www.w3.org/2000/svg">
<path d="M10.6135 5.09082C9.1668 5.09082 7.77937 5.65805 6.75641 6.66773C5.73345 7.6774 5.15875 9.04682 5.15875 10.4747C5.15875 11.9026 5.73345 13.272 6.75641 14.2817C7.77937 15.2914 9.1668 15.8586 10.6135 15.8586C12.0602 15.8586 13.4476 15.2914 14.4706 14.2817C15.4935 13.272 16.0682 11.9026 16.0682 10.4747C16.0682 9.04682 15.4935 7.6774 14.4706 6.66773C13.4476 5.65805 12.0602 5.09082 10.6135 5.09082ZM10.6135 13.9712C9.67365 13.9712 8.77229 13.6027 8.10772 12.9468C7.44315 12.2908 7.0698 11.4012 7.0698 10.4736C7.0698 9.54591 7.44315 8.65627 8.10772 8.00033C8.77229 7.34439 9.67365 6.97588 10.6135 6.97588C11.5533 6.97588 12.4547 7.34439 13.1193 8.00033C13.7838 8.65627 14.1572 9.54591 14.1572 10.4736C14.1572 11.4012 13.7838 12.2908 13.1193 12.9468C12.4547 13.6027 11.5533 13.9712 10.6135 13.9712Z" fill="white"/>
<path d="M16.2842 6.14898C16.9865 6.14898 17.5558 5.58703 17.5558 4.89383C17.5558 4.20062 16.9865 3.63867 16.2842 3.63867C15.5818 3.63867 15.0125 4.20062 15.0125 4.89383C15.0125 5.58703 15.5818 6.14898 16.2842 6.14898Z" fill="white"/>
<path d="M20.6806 3.61643C20.4075 2.92037 19.9902 2.28825 19.4553 1.76055C18.9205 1.23284 18.2799 0.821174 17.5745 0.551896C16.7492 0.246091 15.8772 0.0807365 14.9958 0.0628741C13.8598 0.0139719 13.5 0 10.6193 0C7.73856 0 7.36932 -1.17112e-07 6.24275 0.0628741C5.36201 0.0798232 4.49067 0.245211 3.66638 0.551896C2.96087 0.82086 2.32011 1.23242 1.78522 1.76016C1.25032 2.28791 0.833108 2.92019 0.560338 3.61643C0.250447 4.43102 0.083301 5.29173 0.0660608 6.16168C0.0153355 7.28177 0 7.63689 0 10.4814C0 13.3247 -8.78914e-09 13.6868 0.0660608 14.8011C0.0837557 15.672 0.250087 16.5313 0.560338 17.3475C0.833874 18.0435 1.25149 18.6755 1.78652 19.2032C2.32154 19.7308 2.9622 20.1425 3.66756 20.412C4.49029 20.7301 5.36198 20.9073 6.24511 20.936C7.38112 20.9849 7.74092 21 10.6216 21C13.5024 21 13.8716 21 14.9982 20.936C15.8795 20.9183 16.7514 20.7533 17.5769 20.4481C18.2821 20.1782 18.9225 19.7662 19.4572 19.2383C19.992 18.7105 20.4095 18.0784 20.6829 17.3824C20.9932 16.5674 21.1595 15.7081 21.1772 14.8372C21.2279 13.7171 21.2433 13.3619 21.2433 10.5175C21.2433 7.67299 21.2433 7.31204 21.1772 6.19777C21.1635 5.31552 20.9955 4.44224 20.6806 3.61643ZM19.2438 14.7149C19.2362 15.3859 19.1121 16.0507 18.8769 16.6803C18.6997 17.1331 18.4285 17.5442 18.0807 17.8873C17.7329 18.2305 17.3162 18.4979 16.8573 18.6725C16.2265 18.9035 15.5601 19.026 14.8873 19.0346C13.7666 19.0858 13.4505 19.0986 10.5768 19.0986C7.70081 19.0986 7.40707 19.0986 6.26516 19.0346C5.59267 19.0265 4.92664 18.904 4.29632 18.6725C3.83588 18.499 3.41747 18.232 3.06816 17.8888C2.71885 17.5457 2.44642 17.1339 2.26848 16.6803C2.03662 16.0574 1.91259 15.4005 1.90161 14.737C1.85088 13.6309 1.83909 13.3189 1.83909 10.4825C1.83909 7.64504 1.83909 7.35512 1.90161 6.22688C1.90923 5.55625 2.03332 4.89187 2.26848 4.26264C2.62828 3.34398 3.36556 2.62092 4.29632 2.26929C4.92695 2.03892 5.59279 1.91646 6.26516 1.90719C7.38702 1.85712 7.70199 1.84315 10.5768 1.84315C13.4516 1.84315 13.7466 1.84315 14.8873 1.90719C15.5602 1.91517 16.2266 2.03767 16.8573 2.26929C17.3161 2.44426 17.7328 2.71198 18.0806 3.05526C18.4284 3.39854 18.6996 3.8098 18.8769 4.26264C19.1088 4.8855 19.2328 5.54243 19.2438 6.20592C19.2945 7.31321 19.3075 7.62408 19.3075 10.4616C19.3075 13.2979 19.3075 13.603 19.2567 14.7161H19.2438V14.7149Z" fill="white"/>
</svg>
