<svg width="33" height="21" viewBox="0 0 33 21" fill="none" xmlns="http://www.w3.org/2000/svg">
<path d="M25.05 11.9269C23.604 11.9269 22.2456 11.353 21.0152 10.4135L21.3125 9.08794L21.3223 9.03517C21.594 7.62727 22.4346 5.26041 25.049 5.26041C25.9898 5.26066 26.892 5.61221 27.5573 6.23778C28.2225 6.86335 28.5963 7.71173 28.5966 8.59642C28.595 9.48031 28.2206 10.3275 27.5555 10.9521C26.8904 11.5766 25.989 11.9276 25.049 11.9278L25.05 11.9269ZM25.05 1.8846C21.718 1.8846 19.1282 3.91916 18.0779 7.26998C16.4783 5.00864 15.2578 2.29003 14.551 0H10.9621V8.77877C10.9603 9.61195 10.6075 10.4105 9.98098 10.9997C9.35447 11.5888 8.50527 11.9205 7.61925 11.9222C6.73348 11.9198 5.88472 11.5878 5.25838 10.9988C4.63204 10.4099 4.27902 9.61172 4.27642 8.77877V0H0.6875V8.77877C0.6875 12.3749 3.79901 15.3212 7.61925 15.3212C11.4434 15.3212 14.551 12.3758 14.551 8.77877V7.30793C15.2479 8.67232 16.1043 10.0608 17.1447 11.2854L14.9457 21H18.6163L20.211 13.9512C21.6058 14.7899 23.2103 15.3203 25.051 15.3203C28.9884 15.3203 32.1875 12.2925 32.1875 8.59457C32.1875 4.89201 28.9884 1.88368 25.051 1.88368L25.05 1.8846Z" fill="white"/>
</svg>
