<?xml version="1.0" encoding="utf-8"?><svg viewBox="0 0 630 113" xmlns="http://www.w3.org/2000/svg" xmlns:xlink="http://www.w3.org/1999/xlink"><style>:root>svg{display:none}:root>svg:target{display:block}</style><svg viewBox="0 0 630 113" id="logo" xmlns="http://www.w3.org/2000/svg"><path d="M427.045 80.432c-1.242 0-2.31-.44-3.204-1.318-.894-.894-1.341-1.97-1.341-3.228 0-1.242.447-2.303 1.341-3.181.894-.894 1.962-1.341 3.204-1.341 1.243 0 2.311.447 3.205 1.34.894.88 1.341 1.94 1.341 3.182 0 .834-.212 1.599-.636 2.296a4.709 4.709 0 01-1.637 1.636 4.332 4.332 0 01-2.273.614zm29.944-35.341v5.454H437.92v-5.454h19.069zm-13.955-8.364h6.796V69.75c0 1.318.197 2.31.59 2.977.394.652.902 1.099 1.523 1.341a6.092 6.092 0 002.068.341 7.95 7.95 0 001.432-.114c.409-.075.727-.136.955-.181l1.227 5.613c-.394.152-.955.303-1.682.455-.727.166-1.636.257-2.727.272-1.788.03-3.455-.287-5-.954a8.571 8.571 0 01-3.75-3.09c-.955-1.395-1.432-3.145-1.432-5.25V36.726zm36.142 43.977c-3.439 0-6.401-.734-8.886-2.204-2.47-1.485-4.379-3.568-5.728-6.25-1.333-2.697-2-5.856-2-9.477 0-3.576.667-6.728 2-9.455 1.349-2.727 3.228-4.856 5.637-6.386 2.424-1.53 5.257-2.296 8.5-2.296 1.97 0 3.879.326 5.727.978 1.849.651 3.508 1.674 4.977 3.068 1.47 1.394 2.629 3.204 3.478 5.432.848 2.212 1.272 4.901 1.272 8.068v2.409h-27.75V59.5h21.091c0-1.788-.363-3.371-1.091-4.75a8.248 8.248 0 00-3.068-3.295c-1.303-.803-2.833-1.205-4.591-1.205-1.909 0-3.575.47-5 1.41a9.45 9.45 0 00-3.272 3.636c-.758 1.484-1.137 3.098-1.137 4.84v3.978c0 2.333.409 4.318 1.227 5.954.834 1.636 1.993 2.886 3.478 3.75 1.485.849 3.219 1.273 5.204 1.273 1.288 0 2.462-.182 3.523-.545a7.606 7.606 0 002.75-1.682c.773-.743 1.364-1.66 1.773-2.75l6.432 1.159a11.66 11.66 0 01-2.773 4.977c-1.318 1.41-2.977 2.508-4.977 3.296-1.985.772-4.25 1.158-6.796 1.158zm32.676.069c-2.212 0-4.212-.41-6-1.227-1.788-.834-3.204-2.038-4.25-3.614-1.03-1.576-1.545-3.508-1.545-5.796 0-1.97.379-3.59 1.136-4.863a8.388 8.388 0 013.068-3.023c1.288-.742 2.728-1.303 4.319-1.682a42.908 42.908 0 014.863-.863l5.091-.591c1.303-.167 2.25-.432 2.841-.796.591-.363.886-.954.886-1.773v-.159c0-1.985-.56-3.522-1.681-4.613-1.107-1.091-2.758-1.637-4.955-1.637-2.288 0-4.091.508-5.409 1.523-1.303 1-2.205 2.114-2.705 3.341l-6.386-1.455c.758-2.12 1.864-3.833 3.318-5.136a13.46 13.46 0 015.068-2.864c1.909-.606 3.917-.909 6.023-.909 1.394 0 2.871.167 4.432.5 1.576.319 3.045.91 4.409 1.773 1.379.864 2.508 2.099 3.386 3.705.879 1.59 1.319 3.659 1.319 6.204V80h-6.637v-4.773h-.273c-.439.88-1.098 1.743-1.977 2.591-.879.849-2.007 1.553-3.386 2.114-1.379.56-3.03.84-4.955.84zm1.478-5.455c1.878 0 3.484-.371 4.818-1.114 1.348-.742 2.371-1.712 3.068-2.908a7.547 7.547 0 001.068-3.887v-4.5c-.242.242-.712.47-1.409.682-.682.197-1.462.371-2.341.523-.879.136-1.735.265-2.568.386-.833.106-1.53.197-2.091.273-1.318.166-2.523.447-3.614.84-1.075.395-1.939.963-2.591 1.705-.636.728-.954 1.697-.954 2.91 0 1.681.621 2.954 1.864 3.818 1.242.848 2.825 1.272 4.75 1.272zM538.131 80V45.09h6.522v5.683h.432c.728-1.925 1.917-3.425 3.568-4.5 1.652-1.091 3.629-1.637 5.932-1.637 2.334 0 4.288.546 5.864 1.637 1.591 1.09 2.765 2.59 3.523 4.5h.363c.834-1.864 2.159-3.349 3.977-4.455 1.819-1.121 3.985-1.682 6.5-1.682 3.167 0 5.75.993 7.75 2.978 2.016 1.985 3.023 4.977 3.023 8.977V80h-6.795V57.227c0-2.363-.644-4.075-1.932-5.136-1.288-1.06-2.826-1.591-4.614-1.591-2.212 0-3.932.682-5.159 2.045-1.227 1.349-1.841 3.084-1.841 5.205V80h-6.772V56.795c0-1.894-.591-3.416-1.773-4.568-1.182-1.151-2.72-1.727-4.614-1.727-1.288 0-2.477.34-3.568 1.023-1.076.666-1.947 1.598-2.614 2.795-.651 1.197-.977 2.584-.977 4.16V80h-6.795zM11.364 33.455V80H4.568V33.455h6.796zM20.506 80V45.09H27.3V80h-6.795zm3.431-40.295c-1.181 0-2.197-.394-3.045-1.182-.833-.803-1.25-1.758-1.25-2.864 0-1.121.417-2.076 1.25-2.864.849-.803 1.864-1.204 3.046-1.204 1.181 0 2.189.401 3.022 1.204.849.788 1.273 1.743 1.273 2.864 0 1.106-.424 2.06-1.273 2.864-.833.788-1.84 1.181-3.023 1.181zM43.24 59.273V80h-6.796V45.09h6.523v5.683h.432c.803-1.849 2.06-3.334 3.772-4.455 1.728-1.121 3.902-1.682 6.523-1.682 2.379 0 4.462.5 6.25 1.5 1.788.985 3.174 2.455 4.16 4.41.984 1.954 1.477 4.37 1.477 7.25V80h-6.796V58.614c0-2.53-.659-4.508-1.977-5.932-1.318-1.44-3.129-2.16-5.432-2.16-1.576 0-2.977.342-4.205 1.023-1.212.682-2.174 1.682-2.886 3-.697 1.303-1.045 2.88-1.045 4.728zm37.704 8.886l-.045-8.295h1.181L95.99 45.09h8.136L88.261 61.909h-1.068l-6.25 6.25zM74.693 80V33.455h6.796V80h-6.796zm22.046 0l-12.5-16.59 4.681-4.75L105.08 80h-8.341zm31.772-22.614v5.887h-20.636v-5.887h20.636zM138.114 80V33.455h6.795V50.75h.409c.394-.727.962-1.568 1.705-2.523.742-.954 1.772-1.788 3.091-2.5 1.318-.727 3.06-1.09 5.227-1.09 2.818 0 5.333.712 7.545 2.136 2.212 1.424 3.947 3.477 5.205 6.159 1.273 2.682 1.909 5.909 1.909 9.682 0 3.772-.629 7.007-1.886 9.704-1.258 2.682-2.985 4.75-5.182 6.205-2.197 1.44-4.705 2.159-7.523 2.159-2.121 0-3.856-.356-5.204-1.068-1.334-.713-2.379-1.546-3.137-2.5-.757-.955-1.341-1.803-1.75-2.546h-.568V80h-6.636zm6.659-17.455c0 2.455.356 4.606 1.068 6.455.712 1.849 1.742 3.296 3.091 4.34 1.348 1.031 3 1.546 4.954 1.546 2.031 0 3.728-.537 5.091-1.613 1.364-1.091 2.394-2.569 3.091-4.432.712-1.864 1.068-3.962 1.068-6.295 0-2.304-.348-4.372-1.045-6.205-.682-1.833-1.712-3.28-3.091-4.341-1.364-1.06-3.068-1.59-5.114-1.59-1.969 0-3.636.507-5 1.522-1.348 1.015-2.371 2.432-3.068 4.25-.697 1.818-1.045 3.94-1.045 6.363zm54.971 2.978V45.09h6.818V80h-6.681v-6.046h-.364c-.803 1.864-2.091 3.417-3.864 4.66-1.757 1.227-3.947 1.84-6.568 1.84-2.242 0-4.227-.492-5.954-1.477-1.712-1-3.061-2.477-4.046-4.431-.969-1.955-1.454-4.372-1.454-7.25V45.09h6.795v21.386c0 2.38.659 4.273 1.977 5.682 1.319 1.41 3.031 2.114 5.137 2.114 1.273 0 2.538-.319 3.795-.955 1.273-.636 2.326-1.598 3.159-2.886.849-1.288 1.265-2.924 1.25-4.91zM215.693 80V45.09h6.796V80h-6.796zm3.432-40.295c-1.182 0-2.197-.394-3.045-1.182-.834-.803-1.25-1.758-1.25-2.864 0-1.121.416-2.076 1.25-2.864.848-.803 1.863-1.204 3.045-1.204s2.189.401 3.023 1.204c.848.788 1.272 1.743 1.272 2.864 0 1.106-.424 2.06-1.272 2.864-.834.788-1.841 1.181-3.023 1.181zm19.301-6.25V80h-6.795V33.455h6.795zm22.21 47.227c-2.818 0-5.333-.72-7.545-2.16-2.197-1.454-3.924-3.522-5.182-6.204-1.242-2.697-1.864-5.932-1.864-9.704 0-3.773.629-7 1.887-9.682 1.273-2.682 3.015-4.735 5.227-6.16 2.212-1.423 4.72-2.136 7.523-2.136 2.166 0 3.909.364 5.227 1.091 1.333.712 2.364 1.546 3.091 2.5.742.955 1.318 1.796 1.727 2.523h.409V33.455h6.796V80h-6.637v-5.432h-.568c-.409.743-1 1.591-1.772 2.546-.758.954-1.803 1.787-3.137 2.5-1.333.712-3.06 1.068-5.182 1.068zm1.5-5.796c1.955 0 3.606-.515 4.955-1.545 1.364-1.045 2.394-2.492 3.091-4.341.712-1.849 1.068-4 1.068-6.455 0-2.424-.348-4.545-1.045-6.363-.697-1.818-1.72-3.235-3.069-4.25-1.348-1.015-3.015-1.523-5-1.523-2.045 0-3.75.53-5.113 1.591-1.364 1.06-2.394 2.508-3.091 4.34-.682 1.834-1.023 3.902-1.023 6.205 0 2.334.349 4.432 1.046 6.296.697 1.864 1.727 3.34 3.09 4.432 1.379 1.076 3.076 1.613 5.091 1.613zM287.631 80V45.09h6.795V80h-6.795zm3.431-40.295c-1.181 0-2.196-.394-3.045-1.182-.833-.803-1.25-1.758-1.25-2.864 0-1.121.417-2.076 1.25-2.864.849-.803 1.864-1.204 3.045-1.204 1.182 0 2.19.401 3.023 1.204.849.788 1.273 1.743 1.273 2.864 0 1.106-.424 2.06-1.273 2.864-.833.788-1.841 1.181-3.023 1.181zm19.302 19.568V80h-6.796V45.09h6.523v5.683h.432c.803-1.849 2.06-3.334 3.772-4.455 1.728-1.121 3.902-1.682 6.523-1.682 2.379 0 4.462.5 6.25 1.5 1.788.985 3.174 2.455 4.159 4.41.985 1.954 1.478 4.37 1.478 7.25V80h-6.796V58.614c0-2.53-.659-4.508-1.977-5.932-1.318-1.44-3.129-2.16-5.432-2.16-1.576 0-2.977.342-4.205 1.023-1.212.682-2.174 1.682-2.886 3-.697 1.303-1.045 2.88-1.045 4.728zm46.091 34.545c-2.773 0-5.16-.364-7.16-1.09-1.984-.728-3.606-1.69-4.863-2.887-1.258-1.197-2.197-2.508-2.818-3.932l5.841-2.409c.409.667.954 1.371 1.636 2.114.697.757 1.636 1.401 2.818 1.931 1.197.53 2.735.796 4.614.796 2.575 0 4.704-.629 6.386-1.886 1.682-1.243 2.523-3.228 2.523-5.955v-6.864H365c-.409.743-1 1.569-1.773 2.478-.757.909-1.803 1.697-3.136 2.363-1.333.667-3.068 1-5.205 1-2.757 0-5.242-.644-7.454-1.931-2.197-1.304-3.94-3.22-5.227-5.75-1.273-2.546-1.91-5.675-1.91-9.387 0-3.712.629-6.894 1.887-9.545 1.273-2.652 3.015-4.682 5.227-6.091 2.212-1.425 4.72-2.137 7.523-2.137 2.166 0 3.916.364 5.25 1.091 1.333.712 2.371 1.546 3.113 2.5.758.955 1.341 1.796 1.75 2.523h.5v-5.66h6.66v35.683c0 3-.697 5.462-2.091 7.386-1.394 1.924-3.281 3.349-5.659 4.273-2.364.924-5.031 1.386-8 1.386zm-.069-19.977c1.955 0 3.606-.455 4.955-1.364 1.364-.924 2.394-2.242 3.091-3.954.712-1.727 1.068-3.796 1.068-6.205 0-2.348-.348-4.416-1.045-6.204-.697-1.788-1.72-3.182-3.069-4.182-1.348-1.015-3.015-1.523-5-1.523-2.045 0-3.75.53-5.113 1.591-1.364 1.045-2.394 2.47-3.091 4.273-.682 1.803-1.023 3.818-1.023 6.045 0 2.288.349 4.296 1.046 6.023.697 1.727 1.727 3.076 3.09 4.045 1.379.97 3.076 1.455 5.091 1.455z"/><path d="M578.352 17.514h.029l.03-.001c11.016-.258 21.74 3.39 30.16 10.244 8.41 6.846 13.941 16.415 15.58 26.905a41.176 41.176 0 01-1.598 17.859 42.152 42.152 0 01-9.099 15.665 43.866 43.866 0 01-15.001 10.637 45.169 45.169 0 01-18.225 3.676h-15.492a5.36 5.36 0 01-3.73-1.492A4.883 4.883 0 01559.5 97.5c0-1.3.532-2.564 1.506-3.507a5.362 5.362 0 013.73-1.492h15.468a34.286 34.286 0 0013.524-2.716 33.437 33.437 0 0011.257-7.81 32.294 32.294 0 007.05-11.592 31.62 31.62 0 001.607-13.39l-.003-.036-.005-.037c-1.04-8.292-5.231-15.892-11.73-21.323-6.488-5.423-14.814-8.299-23.352-8.086h-13.816a5.362 5.362 0 01-3.73-1.491 4.883 4.883 0 01-1.506-3.508c0-1.33.529-2.497 1.584-3.374 1.083-.9 2.889-1.625 5.586-1.625h11.682zM431.648 102.487h-.059c-11.016.258-21.74-3.39-30.16-10.244-8.41-6.846-13.941-16.415-15.58-26.905a41.176 41.176 0 011.598-17.859 42.151 42.151 0 019.099-15.665 43.866 43.866 0 0115.001-10.637 45.175 45.175 0 0118.225-3.676h15.492a5.36 5.36 0 013.73 1.492A4.883 4.883 0 01450.5 22.5c0 1.3-.532 2.564-1.506 3.508a5.362 5.362 0 01-3.73 1.491h-15.468a34.286 34.286 0 00-13.524 2.716 33.437 33.437 0 00-11.257 7.81 32.294 32.294 0 00-7.05 11.592 31.62 31.62 0 00-1.599 13.463c1.04 8.292 5.231 15.892 11.73 21.323 6.488 5.423 14.814 8.299 23.352 8.086h13.816c1.413 0 2.754.545 3.73 1.491a4.883 4.883 0 011.506 3.508c0 1.33-.529 2.497-1.584 3.374-1.083.9-2.889 1.625-5.586 1.625h-11.682zM412.192 13.515a2.817 2.817 0 003.262-2.288l.673-3.894a2.801 2.801 0 00-.53-2.029 2.839 2.839 0 00-3.857-.665 2.806 2.806 0 00-1.182 1.734l-.673 3.9a2.814 2.814 0 002.304 3.244l.003-.002zm-18.2 12.761l.078.014a2.837 2.837 0 002.109-.472 2.802 2.802 0 001.154-1.816 2.803 2.803 0 00-.478-2.097 2.834 2.834 0 00-1.829-1.149l-.084-.014h.006l-3.92-.673a2.838 2.838 0 00-2.041.524 2.803 2.803 0 00-1.107 1.782 2.802 2.802 0 00.443 2.05 2.834 2.834 0 001.747 1.177h.005l3.917.674zM398.599 15a2.83 2.83 0 002.967 1.224 2.83 2.83 0 001.809-1.268 2.794 2.794 0 00-.164-3.186l-.002-.003-2.297-3.23a2.817 2.817 0 00-1.836-1.235 2.84 2.84 0 00-2.166.46 2.808 2.808 0 00-1.164 1.872 2.794 2.794 0 00.554 2.132l.002.003 2.297 3.23zm208.227 87.66a2.815 2.815 0 00-2.826 2.807v3.952c.031.724.342 1.408.868 1.91a2.84 2.84 0 003.914.002 2.805 2.805 0 00.869-1.909v-3.957a2.817 2.817 0 00-2.823-2.808l-.002.003zM622.589 87h-.079c-.749 0-1.468.296-1.998.822a2.798 2.798 0 00-.828 1.986 2.8 2.8 0 00.828 1.985c.53.526 1.249.822 1.998.822h.085-.006 3.978a2.836 2.836 0 001.922-.862 2.798 2.798 0 00.002-3.889 2.839 2.839 0 00-1.922-.864h-3.98zm-2.62 11.894a2.828 2.828 0 00-2.02-.906 2.837 2.837 0 00-2.056.82 2.807 2.807 0 00-.828 2.042 2.796 2.796 0 00.908 2.008l.003.003 2.813 2.794a2.821 2.821 0 002.019.906 2.845 2.845 0 002.056-.821 2.794 2.794 0 00-.08-4.049l-.003-.003-2.812-2.794z"/></svg><svg viewBox="0 0 630 113" id="logo-white" xmlns="http://www.w3.org/2000/svg"><path d="M427.045 80.432c-1.242 0-2.31-.44-3.204-1.318-.894-.894-1.341-1.97-1.341-3.228 0-1.242.447-2.303 1.341-3.181.894-.894 1.962-1.341 3.204-1.341 1.243 0 2.311.447 3.205 1.34.894.88 1.341 1.94 1.341 3.182 0 .834-.212 1.599-.636 2.296a4.709 4.709 0 01-1.637 1.636 4.332 4.332 0 01-2.273.614zm29.944-35.341v5.454H437.92v-5.454h19.069zm-13.955-8.364h6.796V69.75c0 1.318.197 2.31.59 2.977.394.652.902 1.099 1.523 1.341a6.092 6.092 0 002.068.341 7.95 7.95 0 001.432-.114c.409-.075.727-.136.955-.181l1.227 5.613c-.394.152-.955.303-1.682.455-.727.166-1.636.257-2.727.272-1.788.03-3.455-.287-5-.954a8.571 8.571 0 01-3.75-3.09c-.955-1.395-1.432-3.145-1.432-5.25V36.726zm36.142 43.977c-3.439 0-6.401-.734-8.886-2.204-2.47-1.485-4.379-3.568-5.728-6.25-1.333-2.697-2-5.856-2-9.477 0-3.576.667-6.728 2-9.455 1.349-2.727 3.228-4.856 5.637-6.386 2.424-1.53 5.257-2.296 8.5-2.296 1.97 0 3.879.326 5.727.978 1.849.651 3.508 1.674 4.977 3.068 1.47 1.394 2.629 3.204 3.478 5.432.848 2.212 1.272 4.901 1.272 8.068v2.409h-27.75V59.5h21.091c0-1.788-.363-3.371-1.091-4.75a8.248 8.248 0 00-3.068-3.295c-1.303-.803-2.833-1.205-4.591-1.205-1.909 0-3.575.47-5 1.41a9.45 9.45 0 00-3.272 3.636c-.758 1.484-1.137 3.098-1.137 4.84v3.978c0 2.333.409 4.318 1.227 5.954.834 1.636 1.993 2.886 3.478 3.75 1.485.849 3.219 1.273 5.204 1.273 1.288 0 2.462-.182 3.523-.545a7.606 7.606 0 002.75-1.682c.773-.743 1.364-1.66 1.773-2.75l6.432 1.159a11.66 11.66 0 01-2.773 4.977c-1.318 1.41-2.977 2.508-4.977 3.296-1.985.772-4.25 1.158-6.796 1.158zm32.676.069c-2.212 0-4.212-.41-6-1.227-1.788-.834-3.204-2.038-4.25-3.614-1.03-1.576-1.545-3.508-1.545-5.796 0-1.97.379-3.59 1.136-4.863a8.388 8.388 0 013.068-3.023c1.288-.742 2.728-1.303 4.319-1.682a42.908 42.908 0 014.863-.863l5.091-.591c1.303-.167 2.25-.432 2.841-.796.591-.363.886-.954.886-1.773v-.159c0-1.985-.56-3.522-1.681-4.613-1.107-1.091-2.758-1.637-4.955-1.637-2.288 0-4.091.508-5.409 1.523-1.303 1-2.205 2.114-2.705 3.341l-6.386-1.455c.758-2.12 1.864-3.833 3.318-5.136a13.46 13.46 0 015.068-2.864c1.909-.606 3.917-.909 6.023-.909 1.394 0 2.871.167 4.432.5 1.576.319 3.045.91 4.409 1.773 1.379.864 2.508 2.099 3.386 3.705.879 1.59 1.319 3.659 1.319 6.204V80h-6.637v-4.773h-.273c-.439.88-1.098 1.743-1.977 2.591-.879.849-2.007 1.553-3.386 2.114-1.379.56-3.03.84-4.955.84zm1.478-5.455c1.878 0 3.484-.371 4.818-1.114 1.348-.742 2.371-1.712 3.068-2.908a7.547 7.547 0 001.068-3.887v-4.5c-.242.242-.712.47-1.409.682-.682.197-1.462.371-2.341.523-.879.136-1.735.265-2.568.386-.833.106-1.53.197-2.091.273-1.318.166-2.523.447-3.614.84-1.075.395-1.939.963-2.591 1.705-.636.728-.954 1.697-.954 2.91 0 1.681.621 2.954 1.864 3.818 1.242.848 2.825 1.272 4.75 1.272zM538.131 80V45.09h6.522v5.683h.432c.728-1.925 1.917-3.425 3.568-4.5 1.652-1.091 3.629-1.637 5.932-1.637 2.334 0 4.288.546 5.864 1.637 1.591 1.09 2.765 2.59 3.523 4.5h.363c.834-1.864 2.159-3.349 3.977-4.455 1.819-1.121 3.985-1.682 6.5-1.682 3.167 0 5.75.993 7.75 2.978 2.016 1.985 3.023 4.977 3.023 8.977V80h-6.795V57.227c0-2.363-.644-4.075-1.932-5.136-1.288-1.06-2.826-1.591-4.614-1.591-2.212 0-3.932.682-5.159 2.045-1.227 1.349-1.841 3.084-1.841 5.205V80h-6.772V56.795c0-1.894-.591-3.416-1.773-4.568-1.182-1.151-2.72-1.727-4.614-1.727-1.288 0-2.477.34-3.568 1.023-1.076.666-1.947 1.598-2.614 2.795-.651 1.197-.977 2.584-.977 4.16V80h-6.795zM11.364 33.455V80H4.568V33.455h6.796zM20.506 80V45.09H27.3V80h-6.795zm3.431-40.295c-1.181 0-2.197-.394-3.045-1.182-.833-.803-1.25-1.758-1.25-2.864 0-1.121.417-2.076 1.25-2.864.849-.803 1.864-1.204 3.046-1.204 1.181 0 2.189.401 3.022 1.204.849.788 1.273 1.743 1.273 2.864 0 1.106-.424 2.06-1.273 2.864-.833.788-1.84 1.181-3.023 1.181zM43.24 59.273V80h-6.796V45.09h6.523v5.683h.432c.803-1.849 2.06-3.334 3.772-4.455 1.728-1.121 3.902-1.682 6.523-1.682 2.379 0 4.462.5 6.25 1.5 1.788.985 3.174 2.455 4.16 4.41.984 1.954 1.477 4.37 1.477 7.25V80h-6.796V58.614c0-2.53-.659-4.508-1.977-5.932-1.318-1.44-3.129-2.16-5.432-2.16-1.576 0-2.977.342-4.205 1.023-1.212.682-2.174 1.682-2.886 3-.697 1.303-1.045 2.88-1.045 4.728zm37.704 8.886l-.045-8.295h1.181L95.99 45.09h8.136L88.261 61.909h-1.068l-6.25 6.25zM74.693 80V33.455h6.796V80h-6.796zm22.046 0l-12.5-16.59 4.681-4.75L105.08 80h-8.341zm31.772-22.614v5.887h-20.636v-5.887h20.636zM138.114 80V33.455h6.795V50.75h.409c.394-.727.962-1.568 1.705-2.523.742-.954 1.772-1.788 3.091-2.5 1.318-.727 3.06-1.09 5.227-1.09 2.818 0 5.333.712 7.545 2.136 2.212 1.424 3.947 3.477 5.205 6.159 1.273 2.682 1.909 5.909 1.909 9.682 0 3.772-.629 7.007-1.886 9.704-1.258 2.682-2.985 4.75-5.182 6.205-2.197 1.44-4.705 2.159-7.523 2.159-2.121 0-3.856-.356-5.204-1.068-1.334-.713-2.379-1.546-3.137-2.5-.757-.955-1.341-1.803-1.75-2.546h-.568V80h-6.636zm6.659-17.455c0 2.455.356 4.606 1.068 6.455.712 1.849 1.742 3.296 3.091 4.34 1.348 1.031 3 1.546 4.954 1.546 2.031 0 3.728-.537 5.091-1.613 1.364-1.091 2.394-2.569 3.091-4.432.712-1.864 1.068-3.962 1.068-6.295 0-2.304-.348-4.372-1.045-6.205-.682-1.833-1.712-3.28-3.091-4.341-1.364-1.06-3.068-1.59-5.114-1.59-1.969 0-3.636.507-5 1.522-1.348 1.015-2.371 2.432-3.068 4.25-.697 1.818-1.045 3.94-1.045 6.363zm54.971 2.978V45.09h6.818V80h-6.681v-6.046h-.364c-.803 1.864-2.091 3.417-3.864 4.66-1.757 1.227-3.947 1.84-6.568 1.84-2.242 0-4.227-.492-5.954-1.477-1.712-1-3.061-2.477-4.046-4.431-.969-1.955-1.454-4.372-1.454-7.25V45.09h6.795v21.386c0 2.38.659 4.273 1.977 5.682 1.319 1.41 3.031 2.114 5.137 2.114 1.273 0 2.538-.319 3.795-.955 1.273-.636 2.326-1.598 3.159-2.886.849-1.288 1.265-2.924 1.25-4.91zM215.693 80V45.09h6.796V80h-6.796zm3.432-40.295c-1.182 0-2.197-.394-3.045-1.182-.834-.803-1.25-1.758-1.25-2.864 0-1.121.416-2.076 1.25-2.864.848-.803 1.863-1.204 3.045-1.204s2.189.401 3.023 1.204c.848.788 1.272 1.743 1.272 2.864 0 1.106-.424 2.06-1.272 2.864-.834.788-1.841 1.181-3.023 1.181zm19.301-6.25V80h-6.795V33.455h6.795zm22.21 47.227c-2.818 0-5.333-.72-7.545-2.16-2.197-1.454-3.924-3.522-5.182-6.204-1.242-2.697-1.864-5.932-1.864-9.704 0-3.773.629-7 1.887-9.682 1.273-2.682 3.015-4.735 5.227-6.16 2.212-1.423 4.72-2.136 7.523-2.136 2.166 0 3.909.364 5.227 1.091 1.333.712 2.364 1.546 3.091 2.5.742.955 1.318 1.796 1.727 2.523h.409V33.455h6.796V80h-6.637v-5.432h-.568c-.409.743-1 1.591-1.772 2.546-.758.954-1.803 1.787-3.137 2.5-1.333.712-3.06 1.068-5.182 1.068zm1.5-5.796c1.955 0 3.606-.515 4.955-1.545 1.364-1.045 2.394-2.492 3.091-4.341.712-1.849 1.068-4 1.068-6.455 0-2.424-.348-4.545-1.045-6.363-.697-1.818-1.72-3.235-3.069-4.25-1.348-1.015-3.015-1.523-5-1.523-2.045 0-3.75.53-5.113 1.591-1.364 1.06-2.394 2.508-3.091 4.34-.682 1.834-1.023 3.902-1.023 6.205 0 2.334.349 4.432 1.046 6.296.697 1.864 1.727 3.34 3.09 4.432 1.379 1.076 3.076 1.613 5.091 1.613zM287.631 80V45.09h6.795V80h-6.795zm3.431-40.295c-1.181 0-2.196-.394-3.045-1.182-.833-.803-1.25-1.758-1.25-2.864 0-1.121.417-2.076 1.25-2.864.849-.803 1.864-1.204 3.045-1.204 1.182 0 2.19.401 3.023 1.204.849.788 1.273 1.743 1.273 2.864 0 1.106-.424 2.06-1.273 2.864-.833.788-1.841 1.181-3.023 1.181zm19.302 19.568V80h-6.796V45.09h6.523v5.683h.432c.803-1.849 2.06-3.334 3.772-4.455 1.728-1.121 3.902-1.682 6.523-1.682 2.379 0 4.462.5 6.25 1.5 1.788.985 3.174 2.455 4.159 4.41.985 1.954 1.478 4.37 1.478 7.25V80h-6.796V58.614c0-2.53-.659-4.508-1.977-5.932-1.318-1.44-3.129-2.16-5.432-2.16-1.576 0-2.977.342-4.205 1.023-1.212.682-2.174 1.682-2.886 3-.697 1.303-1.045 2.88-1.045 4.728zm46.091 34.545c-2.773 0-5.16-.364-7.16-1.09-1.984-.728-3.606-1.69-4.863-2.887-1.258-1.197-2.197-2.508-2.818-3.932l5.841-2.409c.409.667.954 1.371 1.636 2.114.697.757 1.636 1.401 2.818 1.931 1.197.53 2.735.796 4.614.796 2.575 0 4.704-.629 6.386-1.886 1.682-1.243 2.523-3.228 2.523-5.955v-6.864H365c-.409.743-1 1.569-1.773 2.478-.757.909-1.803 1.697-3.136 2.363-1.333.667-3.068 1-5.205 1-2.757 0-5.242-.644-7.454-1.931-2.197-1.304-3.94-3.22-5.227-5.75-1.273-2.546-1.91-5.675-1.91-9.387 0-3.712.629-6.894 1.887-9.545 1.273-2.652 3.015-4.682 5.227-6.091 2.212-1.425 4.72-2.137 7.523-2.137 2.166 0 3.916.364 5.25 1.091 1.333.712 2.371 1.546 3.113 2.5.758.955 1.341 1.796 1.75 2.523h.5v-5.66h6.66v35.683c0 3-.697 5.462-2.091 7.386-1.394 1.924-3.281 3.349-5.659 4.273-2.364.924-5.031 1.386-8 1.386zm-.069-19.977c1.955 0 3.606-.455 4.955-1.364 1.364-.924 2.394-2.242 3.091-3.954.712-1.727 1.068-3.796 1.068-6.205 0-2.348-.348-4.416-1.045-6.204-.697-1.788-1.72-3.182-3.069-4.182-1.348-1.015-3.015-1.523-5-1.523-2.045 0-3.75.53-5.113 1.591-1.364 1.045-2.394 2.47-3.091 4.273-.682 1.803-1.023 3.818-1.023 6.045 0 2.288.349 4.296 1.046 6.023.697 1.727 1.727 3.076 3.09 4.045 1.379.97 3.076 1.455 5.091 1.455z"/><mask id="ba"><path d="M626.626 54.307c-1.73-11.124-7.589-21.254-16.477-28.489-8.888-7.234-20.194-11.076-31.797-10.805H566.67c-6.266 0-9.67 3.375-9.67 7.5 0 1.988.815 3.895 2.266 5.302a7.861 7.861 0 005.47 2.196h13.848c7.95-.206 15.694 2.47 21.717 7.504 6.023 5.034 9.893 12.064 10.852 19.716a29.11 29.11 0 01-1.48 12.333 29.808 29.808 0 01-6.505 10.695 30.95 30.95 0 01-10.417 7.225A31.782 31.782 0 01580.209 90h-15.473c-2.052 0-4.019.79-5.47 2.196A7.383 7.383 0 00557 97.5c0 1.989.815 3.896 2.266 5.302a7.859 7.859 0 005.47 2.197h15.473a47.705 47.705 0 0019.234-3.88 46.378 46.378 0 0015.855-11.245 44.646 44.646 0 009.637-16.595 43.69 43.69 0 001.691-18.972z"/></mask><path d="M626.626 54.307c-1.73-11.124-7.589-21.254-16.477-28.489-8.888-7.234-20.194-11.076-31.797-10.805H566.67c-6.266 0-9.67 3.375-9.67 7.5 0 1.988.815 3.895 2.266 5.302a7.861 7.861 0 005.47 2.196h13.848c7.95-.206 15.694 2.47 21.717 7.504 6.023 5.034 9.893 12.064 10.852 19.716a29.11 29.11 0 01-1.48 12.333 29.808 29.808 0 01-6.505 10.695 30.95 30.95 0 01-10.417 7.225A31.782 31.782 0 01580.209 90h-15.473c-2.052 0-4.019.79-5.47 2.196A7.383 7.383 0 00557 97.5c0 1.989.815 3.896 2.266 5.302a7.859 7.859 0 005.47 2.197h15.473a47.705 47.705 0 0019.234-3.88 46.378 46.378 0 0015.855-11.245 44.646 44.646 0 009.637-16.595 43.69 43.69 0 001.691-18.972z"/><path d="M626.626 54.307l4.957-.653-.008-.058-.008-.057-4.941.768zm-48.274-39.294v5h.117l-.117-5zm.232 14.998v5h.065l.064-.002-.129-4.998zm32.569 27.22l4.978-.477-.007-.072-.009-.073-4.962.622zm-30.944 32.77l.02-5h-.02v5zm0 14.998l.039-5h-.039v5zm51.358-51.46c-1.924-12.37-8.434-23.6-18.261-31.599l-6.313 7.756c7.948 6.47 13.156 15.5 14.692 25.38l9.882-1.537zM613.306 21.94c-9.824-7.996-22.295-12.224-35.071-11.925l.234 9.997c10.43-.244 20.571 3.211 28.524 9.684l6.313-7.756zm-34.954-11.927H566.67v10h11.682v-10zm-11.682 0c-4.004 0-7.645 1.083-10.382 3.359-2.794 2.323-4.288 5.615-4.288 9.14h10c0-.599.208-1.057.682-1.451.532-.443 1.727-1.047 3.988-1.047v-10zM552 22.514c0 3.365 1.381 6.56 3.786 8.892l6.96-7.18a2.384 2.384 0 01-.746-1.713h-10zm3.786 8.892a12.861 12.861 0 008.95 3.606v-10c-.775 0-1.488-.3-1.99-.787l-6.96 7.18zm8.95 3.606h13.848v-10h-13.848v10zm13.977-.002c6.752-.174 13.305 2.1 18.381 6.342l6.413-7.673c-6.97-5.825-15.904-8.902-25.052-8.665l.258 9.996zm18.381 6.342c5.072 4.24 8.299 10.13 9.098 16.503l9.923-1.245c-1.121-8.932-5.634-17.102-12.608-22.93l-6.413 7.672zm9.082 16.358a24.119 24.119 0 01-1.227 10.216l9.448 3.277a34.133 34.133 0 001.734-14.448l-9.955.955zm-1.227 10.216a24.802 24.802 0 01-5.417 8.9l7.271 6.867a34.818 34.818 0 007.594-12.49l-9.448-3.276zm-5.417 8.9a25.938 25.938 0 01-8.734 6.056l3.906 9.205a35.94 35.94 0 0012.099-8.394l-7.271-6.866zm-8.734 6.056A26.789 26.789 0 01580.229 85l-.041 10a36.78 36.78 0 0014.516-2.915l-3.906-9.205zM580.209 85h-15.473v10h15.473V85zm-15.473 0c-3.328 0-6.55 1.28-8.95 3.606l6.96 7.18a2.862 2.862 0 011.99-.786V85zm-8.95 3.606A12.383 12.383 0 00552 97.5h10c0-.612.249-1.231.746-1.712l-6.96-7.18zM552 97.5c0 3.366 1.381 6.561 3.786 8.892l6.96-7.18A2.384 2.384 0 01562 97.5h-10zm3.786 8.892a12.863 12.863 0 008.95 3.607v-10c-.775 0-1.488-.3-1.99-.787l-6.96 7.18zm8.95 3.607h15.473v-10h-15.473v10zm15.434-.001a52.66 52.66 0 0021.252-4.288l-3.958-9.183a42.68 42.68 0 01-17.216 3.472l-.078 9.999zm21.252-4.288c6.693-2.885 12.684-7.13 17.564-12.46l-7.375-6.752a41.379 41.379 0 01-14.147 10.029l3.958 9.183zm17.564-12.46a49.647 49.647 0 0010.713-18.453l-9.529-3.035a39.64 39.64 0 01-8.559 14.736l7.375 6.753zm10.713-18.453a48.673 48.673 0 001.884-21.143l-9.914 1.306a38.662 38.662 0 01-1.499 16.802l9.529 3.035z" mask="url(#ba)"/><mask id="bb"><path d="M383.374 65.693c1.73 11.124 7.589 21.254 16.477 28.489 8.888 7.234 20.194 11.076 31.797 10.805h11.682c6.266 0 9.67-3.375 9.67-7.5a7.384 7.384 0 00-2.266-5.302 7.861 7.861 0 00-5.47-2.196h-13.848c-7.95.206-15.694-2.47-21.717-7.504-6.023-5.034-9.893-12.064-10.852-19.716a29.11 29.11 0 011.48-12.333 29.808 29.808 0 016.505-10.695 30.95 30.95 0 0110.417-7.225A31.782 31.782 0 01429.791 30h15.473c2.052 0 4.019-.79 5.47-2.196A7.383 7.383 0 00453 22.5a7.383 7.383 0 00-2.266-5.302 7.861 7.861 0 00-5.47-2.197h-15.473a47.68 47.68 0 00-19.234 3.88 46.373 46.373 0 00-15.855 11.245 44.646 44.646 0 00-9.637 16.595 43.69 43.69 0 00-1.691 18.972z"/></mask><path d="M383.374 65.693c1.73 11.124 7.589 21.254 16.477 28.489 8.888 7.234 20.194 11.076 31.797 10.805h11.682c6.266 0 9.67-3.375 9.67-7.5a7.384 7.384 0 00-2.266-5.302 7.861 7.861 0 00-5.47-2.196h-13.848c-7.95.206-15.694-2.47-21.717-7.504-6.023-5.034-9.893-12.064-10.852-19.716a29.11 29.11 0 011.48-12.333 29.808 29.808 0 016.505-10.695 30.95 30.95 0 0110.417-7.225A31.782 31.782 0 01429.791 30h15.473c2.052 0 4.019-.79 5.47-2.196A7.383 7.383 0 00453 22.5a7.383 7.383 0 00-2.266-5.302 7.861 7.861 0 00-5.47-2.197h-15.473a47.68 47.68 0 00-19.234 3.88 46.373 46.373 0 00-15.855 11.245 44.646 44.646 0 00-9.637 16.595 43.69 43.69 0 00-1.691 18.972z"/><path d="M383.374 65.693l-4.957.653.016.115 4.941-.768zm48.274 39.294v-5h-.117l.117 5zm-.232-14.998v-5c-.043 0-.086 0-.129.002l.129 4.998zm-32.569-27.22l-4.978.477.016.145 4.962-.622zm30.944-32.77l-.02 5h.02v-5zm0-14.997l-.039 5h.039v-5zm-51.358 51.46c1.924 12.369 8.434 23.598 18.261 31.598l6.313-7.756c-7.948-6.47-13.156-15.5-14.692-25.38l-9.882 1.537zm18.261 31.598c9.824 7.996 22.295 12.224 35.071 11.925l-.234-9.997c-10.43.244-20.571-3.211-28.524-9.684l-6.313 7.756zm34.954 11.927h11.682v-10h-11.682v10zm11.682 0c4.004 0 7.645-1.083 10.382-3.359 2.794-2.323 4.288-5.615 4.288-9.14h-10c0 .599-.208 1.057-.682 1.451-.532.443-1.727 1.048-3.988 1.048v10zm14.67-12.5c0-3.365-1.381-6.56-3.786-8.892l-6.96 7.18c.497.482.746 1.101.746 1.713h10zm-3.786-8.892a12.861 12.861 0 00-8.95-3.606v10c.775 0 1.488.3 1.99.786l6.96-7.18zm-8.95-3.606h-13.848v10h13.848v-10zm-13.977.002c-6.752.174-13.305-2.1-18.381-6.342l-6.413 7.673c6.97 5.825 15.904 8.902 25.052 8.665l-.258-9.996zm-18.381-6.342c-5.072-4.24-8.299-10.13-9.098-16.503l-9.923 1.245c1.121 8.932 5.634 17.102 12.608 22.93l6.413-7.672zm-9.082-16.358a24.119 24.119 0 011.227-10.216l-9.448-3.277a34.133 34.133 0 00-1.734 14.448l9.955-.955zm1.227-10.216a24.802 24.802 0 015.417-8.9l-7.271-6.866a34.818 34.818 0 00-7.594 12.489l9.448 3.276zm5.417-8.9a25.938 25.938 0 018.734-6.056l-3.906-9.205a35.94 35.94 0 00-12.099 8.395l7.271 6.865zm8.734-6.056A26.789 26.789 0 01429.771 35l.041-10a36.78 36.78 0 00-14.516 2.915l3.906 9.205zM429.791 35h15.473V25h-15.473v10zm15.473 0a12.86 12.86 0 008.95-3.606l-6.96-7.18a2.862 2.862 0 01-1.99.786v10zm8.95-3.606A12.383 12.383 0 00458 22.5h-10c0 .612-.249 1.231-.746 1.712l6.96 7.18zM458 22.5c0-3.366-1.381-6.561-3.786-8.892l-6.96 7.18c.497.482.746 1.1.746 1.712h10zm-3.786-8.892a12.86 12.86 0 00-8.95-3.607v10c.775 0 1.488.3 1.99.787l6.96-7.18zM445.264 10h-15.473v10h15.473V10zm-15.434 0a52.678 52.678 0 00-21.252 4.289l3.958 9.183A42.68 42.68 0 01429.752 20l.078-10zm-21.252 4.289a51.37 51.37 0 00-17.564 12.46l7.376 6.752a41.358 41.358 0 0114.146-10.029l-3.958-9.183zm-17.564 12.46a49.647 49.647 0 00-10.713 18.453l9.529 3.035a39.629 39.629 0 018.56-14.736l-7.376-6.753zm-10.713 18.453a48.673 48.673 0 00-1.884 21.143l9.914-1.306a38.662 38.662 0 011.499-16.802l-9.529-3.035z" mask="url(#bb)"/><path d="M412.192 13.515a2.817 2.817 0 003.262-2.288l.673-3.894a2.801 2.801 0 00-.53-2.029 2.839 2.839 0 00-3.857-.665 2.806 2.806 0 00-1.182 1.734l-.673 3.9a2.814 2.814 0 002.304 3.244l.003-.002zm-18.2 12.761l.078.014a2.837 2.837 0 002.109-.472 2.802 2.802 0 001.154-1.816 2.803 2.803 0 00-.478-2.097 2.834 2.834 0 00-1.829-1.149l-.084-.014h.006l-3.92-.673a2.838 2.838 0 00-2.041.524 2.803 2.803 0 00-1.107 1.782 2.802 2.802 0 00.443 2.05 2.834 2.834 0 001.747 1.177h.005l3.917.674zM398.599 15a2.83 2.83 0 002.967 1.224 2.83 2.83 0 001.809-1.268 2.794 2.794 0 00-.164-3.186l-.002-.003-2.297-3.23a2.817 2.817 0 00-1.836-1.235 2.84 2.84 0 00-2.166.46 2.808 2.808 0 00-1.164 1.872 2.794 2.794 0 00.554 2.132l.002.003 2.297 3.23zm208.227 87.66a2.815 2.815 0 00-2.826 2.807v3.952c.031.724.342 1.408.868 1.91a2.84 2.84 0 003.914.002 2.805 2.805 0 00.869-1.909v-3.957a2.817 2.817 0 00-2.823-2.808l-.002.003zM622.589 87h-.079c-.749 0-1.468.296-1.998.822a2.798 2.798 0 00-.828 1.986 2.8 2.8 0 00.828 1.985c.53.526 1.249.822 1.998.822h.085-.006 3.978a2.836 2.836 0 001.922-.862 2.798 2.798 0 00.002-3.889 2.839 2.839 0 00-1.922-.864h-3.98zm-2.62 11.894a2.828 2.828 0 00-2.02-.906 2.837 2.837 0 00-2.056.82 2.807 2.807 0 00-.828 2.042 2.796 2.796 0 00.908 2.008l.003.003 2.813 2.794a2.821 2.821 0 002.019.906 2.845 2.845 0 002.056-.821 2.794 2.794 0 00-.08-4.049l-.003-.003-2.812-2.794z"/></svg></svg>